<svg xmlns="http://www.w3.org/2000/svg" width="1272" height="1265" style="cursor: move;"><g transform="translate(-177.39224441256363,-142.5003721985853) scale(1.4439291955224969)"><path class="link" marker-end="" d="M510,511.5, 656,569" style="stroke-width: 0.58; stroke-opacity: 1; stroke: rgb(80, 80, 80);"></path><path class="link" marker-end="" d="M510,511.5, 656,624" style="stroke-width: 0.58; stroke-opacity: 1; stroke: rgb(80, 80, 80);"></path><path class="link" marker-end="" d="M510,511.5, 656,679" style="stroke-width: 0.58; stroke-opacity: 1; stroke: rgb(80, 80, 80);"></path><path class="link" marker-end="" d="M510,511.5, 656,734" style="stroke-width: 0.58; stroke-opacity: 1; stroke: rgb(80, 80, 80);"></path><path class="link" marker-end="" d="M510,551.5, 656,569" style="stroke-width: 0.58; stroke-opacity: 1; stroke: rgb(80, 80, 80);"></path><path class="link" marker-end="" d="M510,551.5, 656,624" style="stroke-width: 0.58; stroke-opacity: 1; stroke: rgb(80, 80, 80);"></path><path class="link" marker-end="" d="M510,551.5, 656,679" style="stroke-width: 0.58; stroke-opacity: 1; stroke: rgb(80, 80, 80);"></path><path class="link" marker-end="" d="M510,551.5, 656,734" style="stroke-width: 0.58; stroke-opacity: 1; stroke: rgb(80, 80, 80);"></path><path class="link" marker-end="" d="M510,591.5, 656,569" style="stroke-width: 0.58; stroke-opacity: 1; stroke: rgb(80, 80, 80);"></path><path class="link" marker-end="" d="M510,591.5, 656,624" style="stroke-width: 0.58; stroke-opacity: 1; stroke: rgb(80, 80, 80);"></path><path class="link" marker-end="" d="M510,591.5, 656,679" style="stroke-width: 0.58; stroke-opacity: 1; stroke: rgb(80, 80, 80);"></path><path class="link" marker-end="" d="M510,591.5, 656,734" style="stroke-width: 0.58; stroke-opacity: 1; stroke: rgb(80, 80, 80);"></path><path class="link" marker-end="" d="M510,631.5, 656,569" style="stroke-width: 0.58; stroke-opacity: 1; stroke: rgb(80, 80, 80);"></path><path class="link" marker-end="" d="M510,631.5, 656,624" style="stroke-width: 0.58; stroke-opacity: 1; stroke: rgb(80, 80, 80);"></path><path class="link" marker-end="" d="M510,631.5, 656,679" style="stroke-width: 0.58; stroke-opacity: 1; stroke: rgb(80, 80, 80);"></path><path class="link" marker-end="" d="M510,631.5, 656,734" style="stroke-width: 0.58; stroke-opacity: 1; stroke: rgb(80, 80, 80);"></path><path class="link" marker-end="" d="M510,671.5, 656,569" style="stroke-width: 0.58; stroke-opacity: 1; stroke: rgb(80, 80, 80);"></path><path class="link" marker-end="" d="M510,671.5, 656,624" style="stroke-width: 0.58; stroke-opacity: 1; stroke: rgb(80, 80, 80);"></path><path class="link" marker-end="" d="M510,671.5, 656,679" style="stroke-width: 0.58; stroke-opacity: 1; stroke: rgb(80, 80, 80);"></path><path class="link" marker-end="" d="M510,671.5, 656,734" style="stroke-width: 0.58; stroke-opacity: 1; stroke: rgb(80, 80, 80);"></path><path class="link" marker-end="" d="M510,711.5, 656,569" style="stroke-width: 0.58; stroke-opacity: 1; stroke: rgb(80, 80, 80);"></path><path class="link" marker-end="" d="M510,711.5, 656,624" style="stroke-width: 0.58; stroke-opacity: 1; stroke: rgb(80, 80, 80);"></path><path class="link" marker-end="" d="M510,711.5, 656,679" style="stroke-width: 0.58; stroke-opacity: 1; stroke: rgb(80, 80, 80);"></path><path class="link" marker-end="" d="M510,711.5, 656,734" style="stroke-width: 0.58; stroke-opacity: 1; stroke: rgb(80, 80, 80);"></path><path class="link" marker-end="" d="M510,751.5, 656,569" style="stroke-width: 0.58; stroke-opacity: 1; stroke: rgb(80, 80, 80);"></path><path class="link" marker-end="" d="M510,751.5, 656,624" style="stroke-width: 0.58; stroke-opacity: 1; stroke: rgb(80, 80, 80);"></path><path class="link" marker-end="" d="M510,751.5, 656,679" style="stroke-width: 0.58; stroke-opacity: 1; stroke: rgb(80, 80, 80);"></path><path class="link" marker-end="" d="M510,751.5, 656,734" style="stroke-width: 0.58; stroke-opacity: 1; stroke: rgb(80, 80, 80);"></path><path class="link" marker-end="" d="M510,791.5, 656,569" style="stroke-width: 0.58; stroke-opacity: 1; stroke: rgb(80, 80, 80);"></path><path class="link" marker-end="" d="M510,791.5, 656,624" style="stroke-width: 0.58; stroke-opacity: 1; stroke: rgb(80, 80, 80);"></path><path class="link" marker-end="" d="M510,791.5, 656,679" style="stroke-width: 0.58; stroke-opacity: 1; stroke: rgb(80, 80, 80);"></path><path class="link" marker-end="" d="M510,791.5, 656,734" style="stroke-width: 0.58; stroke-opacity: 1; stroke: rgb(80, 80, 80);"></path><path class="link" marker-end="" d="M656,569, 802,611.5" style="stroke-width: 0.58; stroke-opacity: 1; stroke: rgb(80, 80, 80);"></path><path class="link" marker-end="" d="M656,569, 802,651.5" style="stroke-width: 0.58; stroke-opacity: 1; stroke: rgb(80, 80, 80);"></path><path class="link" marker-end="" d="M656,569, 802,691.5" style="stroke-width: 0.58; stroke-opacity: 1; stroke: rgb(80, 80, 80);"></path><path class="link" marker-end="" d="M656,624, 802,611.5" style="stroke-width: 0.58; stroke-opacity: 1; stroke: rgb(80, 80, 80);"></path><path class="link" marker-end="" d="M656,624, 802,651.5" style="stroke-width: 0.58; stroke-opacity: 1; stroke: rgb(80, 80, 80);"></path><path class="link" marker-end="" d="M656,624, 802,691.5" style="stroke-width: 0.58; stroke-opacity: 1; stroke: rgb(80, 80, 80);"></path><path class="link" marker-end="" d="M656,679, 802,611.5" style="stroke-width: 0.58; stroke-opacity: 1; stroke: rgb(80, 80, 80);"></path><path class="link" marker-end="" d="M656,679, 802,651.5" style="stroke-width: 0.58; stroke-opacity: 1; stroke: rgb(80, 80, 80);"></path><path class="link" marker-end="" d="M656,679, 802,691.5" style="stroke-width: 0.58; stroke-opacity: 1; stroke: rgb(80, 80, 80);"></path><path class="link" marker-end="" d="M656,734, 802,611.5" style="stroke-width: 0.58; stroke-opacity: 1; stroke: rgb(80, 80, 80);"></path><path class="link" marker-end="" d="M656,734, 802,651.5" style="stroke-width: 0.58; stroke-opacity: 1; stroke: rgb(80, 80, 80);"></path><path class="link" marker-end="" d="M656,734, 802,691.5" style="stroke-width: 0.58; stroke-opacity: 1; stroke: rgb(80, 80, 80);"></path><circle r="16.5" class="node" id="0_0" cx="510" cy="511.5" style="fill: rgb(255, 255, 255); stroke: rgb(51, 51, 51);"></circle><circle r="16.5" class="node" id="0_1" cx="510" cy="551.5" style="fill: rgb(255, 255, 255); stroke: rgb(51, 51, 51);"></circle><circle r="16.5" class="node" id="0_2" cx="510" cy="591.5" style="fill: rgb(255, 255, 255); stroke: rgb(51, 51, 51);"></circle><circle r="16.5" class="node" id="0_3" cx="510" cy="631.5" style="fill: rgb(255, 255, 255); stroke: rgb(51, 51, 51);"></circle><circle r="16.5" class="node" id="0_4" cx="510" cy="671.5" style="fill: rgb(255, 255, 255); stroke: rgb(51, 51, 51);"></circle><circle r="16.5" class="node" id="0_5" cx="510" cy="711.5" style="fill: rgb(255, 255, 255); stroke: rgb(51, 51, 51);"></circle><circle r="16.5" class="node" id="0_6" cx="510" cy="751.5" style="fill: rgb(255, 255, 255); stroke: rgb(51, 51, 51);"></circle><circle r="16.5" class="node" id="0_7" cx="510" cy="791.5" style="fill: rgb(255, 255, 255); stroke: rgb(51, 51, 51);"></circle><text class="text" dy=".35em" x="475" y="831.5" style="font-size: 12px;"></text><circle r="16.5" class="node" id="1_0" cx="656" cy="569" style="fill: rgb(255, 255, 255); stroke: rgb(51, 51, 51);"></circle><circle r="16.5" class="node" id="1_1" cx="656" cy="624" style="fill: rgb(255, 255, 255); stroke: rgb(51, 51, 51);"></circle><circle r="16.5" class="node" id="1_2" cx="656" cy="679" style="fill: rgb(255, 255, 255); stroke: rgb(51, 51, 51);"></circle><circle r="16.5" class="node" id="1_3" cx="656" cy="734" style="fill: rgb(255, 255, 255); stroke: rgb(51, 51, 51);"></circle><text class="text" dy=".35em" x="621" y="831.5" style="font-size: 12px;"></text><circle r="16.5" class="node" id="2_0" cx="802" cy="611.5" style="fill: rgb(255, 255, 255); stroke: rgb(51, 51, 51);"></circle><circle r="16.5" class="node" id="2_1" cx="802" cy="651.5" style="fill: rgb(255, 255, 255); stroke: rgb(51, 51, 51);"></circle><circle r="16.5" class="node" id="2_2" cx="802" cy="691.5" style="fill: rgb(255, 255, 255); stroke: rgb(51, 51, 51);"></circle><text class="text" dy=".35em" x="767" y="831.5" style="font-size: 12px;"></text></g><defs><marker id="arrow" viewBox="0 -5 10 10" markerWidth="7" markerHeight="7" orient="auto" refX="58.199999999999996"><path d="M0,-5L10,0L0,5" style="stroke: rgb(80, 80, 80); fill: none;"></path></marker></defs></svg>