<svg xmlns="http://www.w3.org/2000/svg" width="2560" height="1278" style="cursor: move;"><g transform="translate(-187.47908860557834,114.45821229208968) scale(0.9291606742509133)"><path class="link" marker-end="" d="M1187,437, 1313,569.5" style="stroke-width: 0.5; stroke-opacity: 1; stroke: rgb(80, 80, 80);"></path><path class="link" marker-end="" d="M1187,437, 1313,622.5" style="stroke-width: 0.5; stroke-opacity: 1; stroke: rgb(80, 80, 80);"></path><path class="link" marker-end="" d="M1187,437, 1313,675.5" style="stroke-width: 0.5; stroke-opacity: 1; stroke: rgb(80, 80, 80);"></path><path class="link" marker-end="" d="M1187,490, 1313,569.5" style="stroke-width: 0.5; stroke-opacity: 1; stroke: rgb(80, 80, 80);"></path><path class="link" marker-end="" d="M1187,490, 1313,622.5" style="stroke-width: 0.5; stroke-opacity: 1; stroke: rgb(80, 80, 80);"></path><path class="link" marker-end="" d="M1187,490, 1313,675.5" style="stroke-width: 0.5; stroke-opacity: 1; stroke: rgb(80, 80, 80);"></path><path class="link" marker-end="" d="M1187,543, 1313,569.5" style="stroke-width: 0.5; stroke-opacity: 1; stroke: rgb(80, 80, 80);"></path><path class="link" marker-end="" d="M1187,543, 1313,622.5" style="stroke-width: 0.5; stroke-opacity: 1; stroke: rgb(80, 80, 80);"></path><path class="link" marker-end="" d="M1187,543, 1313,675.5" style="stroke-width: 0.5; stroke-opacity: 1; stroke: rgb(80, 80, 80);"></path><path class="link" marker-end="" d="M1187,596, 1313,569.5" style="stroke-width: 0.5; stroke-opacity: 1; stroke: rgb(80, 80, 80);"></path><path class="link" marker-end="" d="M1187,596, 1313,622.5" style="stroke-width: 0.5; stroke-opacity: 1; stroke: rgb(80, 80, 80);"></path><path class="link" marker-end="" d="M1187,596, 1313,675.5" style="stroke-width: 0.5; stroke-opacity: 1; stroke: rgb(80, 80, 80);"></path><path class="link" marker-end="" d="M1187,649, 1313,569.5" style="stroke-width: 0.5; stroke-opacity: 1; stroke: rgb(80, 80, 80);"></path><path class="link" marker-end="" d="M1187,649, 1313,622.5" style="stroke-width: 0.5; stroke-opacity: 1; stroke: rgb(80, 80, 80);"></path><path class="link" marker-end="" d="M1187,649, 1313,675.5" style="stroke-width: 0.5; stroke-opacity: 1; stroke: rgb(80, 80, 80);"></path><path class="link" marker-end="" d="M1187,702, 1313,569.5" style="stroke-width: 0.5; stroke-opacity: 1; stroke: rgb(80, 80, 80);"></path><path class="link" marker-end="" d="M1187,702, 1313,622.5" style="stroke-width: 0.5; stroke-opacity: 1; stroke: rgb(80, 80, 80);"></path><path class="link" marker-end="" d="M1187,702, 1313,675.5" style="stroke-width: 0.5; stroke-opacity: 1; stroke: rgb(80, 80, 80);"></path><path class="link" marker-end="" d="M1313,569.5, 1439,437" style="stroke-width: 0.5; stroke-opacity: 1; stroke: rgb(80, 80, 80);"></path><path class="link" marker-end="" d="M1313,569.5, 1439,490" style="stroke-width: 0.5; stroke-opacity: 1; stroke: rgb(80, 80, 80);"></path><path class="link" marker-end="" d="M1313,569.5, 1439,543" style="stroke-width: 0.5; stroke-opacity: 1; stroke: rgb(80, 80, 80);"></path><path class="link" marker-end="" d="M1313,569.5, 1439,596" style="stroke-width: 0.5; stroke-opacity: 1; stroke: rgb(80, 80, 80);"></path><path class="link" marker-end="" d="M1313,569.5, 1439,649" style="stroke-width: 0.5; stroke-opacity: 1; stroke: rgb(80, 80, 80);"></path><path class="link" marker-end="" d="M1313,569.5, 1439,702" style="stroke-width: 0.5; stroke-opacity: 1; stroke: rgb(80, 80, 80);"></path><path class="link" marker-end="" d="M1313,569.5, 1439,755" style="stroke-width: 0.5; stroke-opacity: 1; stroke: rgb(80, 80, 80);"></path><path class="link" marker-end="" d="M1313,622.5, 1439,437" style="stroke-width: 0.5; stroke-opacity: 1; stroke: rgb(80, 80, 80);"></path><path class="link" marker-end="" d="M1313,622.5, 1439,490" style="stroke-width: 0.5; stroke-opacity: 1; stroke: rgb(80, 80, 80);"></path><path class="link" marker-end="" d="M1313,622.5, 1439,543" style="stroke-width: 0.5; stroke-opacity: 1; stroke: rgb(80, 80, 80);"></path><path class="link" marker-end="" d="M1313,622.5, 1439,596" style="stroke-width: 0.5; stroke-opacity: 1; stroke: rgb(80, 80, 80);"></path><path class="link" marker-end="" d="M1313,622.5, 1439,649" style="stroke-width: 0.5; stroke-opacity: 1; stroke: rgb(80, 80, 80);"></path><path class="link" marker-end="" d="M1313,622.5, 1439,702" style="stroke-width: 0.5; stroke-opacity: 1; stroke: rgb(80, 80, 80);"></path><path class="link" marker-end="" d="M1313,622.5, 1439,755" style="stroke-width: 0.5; stroke-opacity: 1; stroke: rgb(80, 80, 80);"></path><path class="link" marker-end="" d="M1313,675.5, 1439,437" style="stroke-width: 0.5; stroke-opacity: 1; stroke: rgb(80, 80, 80);"></path><path class="link" marker-end="" d="M1313,675.5, 1439,490" style="stroke-width: 0.5; stroke-opacity: 1; stroke: rgb(80, 80, 80);"></path><path class="link" marker-end="" d="M1313,675.5, 1439,543" style="stroke-width: 0.5; stroke-opacity: 1; stroke: rgb(80, 80, 80);"></path><path class="link" marker-end="" d="M1313,675.5, 1439,596" style="stroke-width: 0.5; stroke-opacity: 1; stroke: rgb(80, 80, 80);"></path><path class="link" marker-end="" d="M1313,675.5, 1439,649" style="stroke-width: 0.5; stroke-opacity: 1; stroke: rgb(80, 80, 80);"></path><path class="link" marker-end="" d="M1313,675.5, 1439,702" style="stroke-width: 0.5; stroke-opacity: 1; stroke: rgb(80, 80, 80);"></path><path class="link" marker-end="" d="M1313,675.5, 1439,755" style="stroke-width: 0.5; stroke-opacity: 1; stroke: rgb(80, 80, 80);"></path><path class="link" marker-end="" d="M1187,755, 1313,569.5" style="stroke-width: 0.5; stroke-opacity: 1; stroke: rgb(80, 80, 80);"></path><path class="link" marker-end="" d="M1187,755, 1313,622.5" style="stroke-width: 0.5; stroke-opacity: 1; stroke: rgb(80, 80, 80);"></path><path class="link" marker-end="" d="M1187,755, 1313,675.5" style="stroke-width: 0.5; stroke-opacity: 1; stroke: rgb(80, 80, 80);"></path><path class="link" marker-end="" d="M1187,808, 1313,569.5" style="stroke-width: 0.5; stroke-opacity: 1; stroke: rgb(80, 80, 80);"></path><path class="link" marker-end="" d="M1187,808, 1313,622.5" style="stroke-width: 0.5; stroke-opacity: 1; stroke: rgb(80, 80, 80);"></path><path class="link" marker-end="" d="M1187,808, 1313,675.5" style="stroke-width: 0.5; stroke-opacity: 1; stroke: rgb(80, 80, 80);"></path><path class="link" marker-end="" d="M1313,569.5, 1439,808" style="stroke-width: 0.5; stroke-opacity: 1; stroke: rgb(80, 80, 80);"></path><path class="link" marker-end="" d="M1313,622.5, 1439,808" style="stroke-width: 0.5; stroke-opacity: 1; stroke: rgb(80, 80, 80);"></path><path class="link" marker-end="" d="M1313,675.5, 1439,808" style="stroke-width: 0.5; stroke-opacity: 1; stroke: rgb(80, 80, 80);"></path><circle r="16.5" class="node" id="0_0" cx="1187" cy="437" style="fill: rgb(255, 255, 255); stroke: rgb(51, 51, 51);"></circle><circle r="16.5" class="node" id="0_1" cx="1187" cy="490" style="fill: rgb(255, 255, 255); stroke: rgb(51, 51, 51);"></circle><circle r="16.5" class="node" id="0_2" cx="1187" cy="543" style="fill: rgb(255, 255, 255); stroke: rgb(51, 51, 51);"></circle><circle r="16.5" class="node" id="0_3" cx="1187" cy="596" style="fill: rgb(255, 255, 255); stroke: rgb(51, 51, 51);"></circle><circle r="16.5" class="node" id="0_4" cx="1187" cy="649" style="fill: rgb(255, 255, 255); stroke: rgb(51, 51, 51);"></circle><circle r="16.5" class="node" id="0_5" cx="1187" cy="702" style="fill: rgb(255, 255, 255); stroke: rgb(51, 51, 51);"></circle><circle r="16.5" class="node" id="0_6" cx="1187" cy="755" style="fill: rgb(255, 255, 255); stroke: rgb(51, 51, 51);"></circle><circle r="16.5" class="node" id="0_7" cx="1187" cy="808" style="fill: rgb(255, 255, 255); stroke: rgb(51, 51, 51);"></circle><circle r="16.5" class="node" id="1_0" cx="1313" cy="569.5" style="fill: rgb(255, 255, 255); stroke: rgb(51, 51, 51);"></circle><circle r="16.5" class="node" id="1_1" cx="1313" cy="622.5" style="fill: rgb(255, 255, 255); stroke: rgb(51, 51, 51);"></circle><circle r="16.5" class="node" id="1_2" cx="1313" cy="675.5" style="fill: rgb(255, 255, 255); stroke: rgb(51, 51, 51);"></circle><circle r="16.5" class="node" id="2_0" cx="1439" cy="437" style="fill: rgb(255, 255, 255); stroke: rgb(51, 51, 51);"></circle><circle r="16.5" class="node" id="2_1" cx="1439" cy="490" style="fill: rgb(255, 255, 255); stroke: rgb(51, 51, 51);"></circle><circle r="16.5" class="node" id="2_2" cx="1439" cy="543" style="fill: rgb(255, 255, 255); stroke: rgb(51, 51, 51);"></circle><circle r="16.5" class="node" id="2_3" cx="1439" cy="596" style="fill: rgb(255, 255, 255); stroke: rgb(51, 51, 51);"></circle><circle r="16.5" class="node" id="2_4" cx="1439" cy="649" style="fill: rgb(255, 255, 255); stroke: rgb(51, 51, 51);"></circle><circle r="16.5" class="node" id="2_5" cx="1439" cy="702" style="fill: rgb(255, 255, 255); stroke: rgb(51, 51, 51);"></circle><circle r="16.5" class="node" id="2_6" cx="1439" cy="755" style="fill: rgb(255, 255, 255); stroke: rgb(51, 51, 51);"></circle><text class="text" dy=".35em" x="1152" y="861" style="font-size: 12px;"></text><text class="text" dy=".35em" x="1278" y="861" style="font-size: 12px;"></text><text class="text" dy=".35em" x="1404" y="861" style="font-size: 12px;"></text><circle r="16.5" class="node" id="2_7" cx="1439" cy="808" style="fill: rgb(255, 255, 255); stroke: rgb(51, 51, 51);"></circle></g><defs><marker id="arrow" viewBox="0 -5 10 10" markerWidth="7" markerHeight="7" orient="auto" refX="58.199999999999996"><path d="M0,-5L10,0L0,5" style="stroke: rgb(80, 80, 80); fill: none;"></path></marker></defs></svg>