<?xml version="1.0" standalone="no"?>
<!DOCTYPE svg PUBLIC "-//W3C//DTD SVG 20010904//EN"
 "http://www.w3.org/TR/2001/REC-SVG-20010904/DTD/svg10.dtd">
<svg version="1.0" xmlns="http://www.w3.org/2000/svg"
 width="30.000000pt" height="30.000000pt" viewBox="0 0 30.000000 30.000000"
 preserveAspectRatio="xMidYMid meet">
<metadata>
Created by potrace 1.16, written by Peter Selinger 2001-2019
</metadata>
<g transform="translate(0.000000,30.000000) scale(0.100000,-0.100000)"
fill="#000000" stroke="none">
<path d="M0 150 l0 -150 150 0 150 0 0 150 0 150 -150 0 -150 0 0 -150z m168
90 c7 0 24 7 37 16 l25 16 -4 -57 c-3 -32 -10 -62 -17 -66 -15 -9 -5 -52 19
-75 16 -17 16 -18 -1 -11 -12 5 -28 0 -44 -12 -14 -12 -31 -17 -41 -14 -33 12
-62 35 -56 44 3 6 -6 7 -22 3 l-28 -7 32 38 c27 33 30 44 26 79 -3 23 0 55 6
71 l12 30 22 -27 c12 -16 27 -28 34 -28z"/>
</g>
</svg>
