<?xml version="1.0" encoding="UTF-8" standalone="no"?>
<svg
   xmlns:ns1="http://www.iki.fi/pav/software/textext/"
   xmlns:dc="http://purl.org/dc/elements/1.1/"
   xmlns:cc="http://creativecommons.org/ns#"
   xmlns:rdf="http://www.w3.org/1999/02/22-rdf-syntax-ns#"
   xmlns:svg="http://www.w3.org/2000/svg"
   xmlns="http://www.w3.org/2000/svg"
   xmlns:sodipodi="http://sodipodi.sourceforge.net/DTD/sodipodi-0.dtd"
   xmlns:inkscape="http://www.inkscape.org/namespaces/inkscape"
   width="504.10153"
   height="502.90033"
   version="1.1"
   id="svg118"
   sodipodi:docname="convolution-dense2.svg"
   inkscape:version="1.0.2 (1.0.2+r75+1)">
  <metadata
     id="metadata122">
    <rdf:RDF>
      <cc:Work
         rdf:about="">
        <dc:format>image/svg+xml</dc:format>
        <dc:type
           rdf:resource="http://purl.org/dc/dcmitype/StillImage" />
        <dc:title></dc:title>
      </cc:Work>
    </rdf:RDF>
  </metadata>
  <sodipodi:namedview
     pagecolor="#ffffff"
     bordercolor="#666666"
     borderopacity="1"
     objecttolerance="10"
     gridtolerance="10"
     guidetolerance="10"
     inkscape:pageopacity="0"
     inkscape:pageshadow="2"
     inkscape:window-width="2560"
     inkscape:window-height="1549"
     id="namedview120"
     showgrid="false"
     inkscape:zoom="2.278393"
     inkscape:cx="213.34805"
     inkscape:cy="238.2075"
     inkscape:window-x="0"
     inkscape:window-y="0"
     inkscape:window-maximized="1"
     inkscape:current-layer="layer1"
     inkscape:document-rotation="0"
     fit-margin-top="0"
     fit-margin-left="0"
     fit-margin-right="0"
     fit-margin-bottom="0" />
  <defs
     id="defs116">
    <marker
       id="arrow"
       viewBox="0 -5 10 10"
       markerWidth="7"
       markerHeight="7"
       orient="auto"
       refX="58.200001">
      <path
         d="M 0,-5 10,0 0,5"
         style="fill:none;stroke:#505050"
         id="path113" />
    </marker>
  </defs>
  <g
     inkscape:groupmode="layer"
     id="layer1"
     inkscape:label="Layer 1"
     style="display:inline"
     transform="translate(-533.72985,-522.0161)">
    <rect
       style="font-variation-settings:'wght' 200;display:inline;fill:none;stroke:#bdd3ff;stroke-width:2.0907;stroke-miterlimit:4;stroke-dasharray:none;stroke-opacity:1;stop-color:#000000"
       id="rect1765"
       width="135.13242"
       height="375.65527"
       x="700.15302"
       y="598.93091"
       rx="0"
       ry="0" />
    <text
       xml:space="preserve"
       style="font-style:normal;font-variant:normal;font-weight:normal;font-stretch:normal;font-size:32.0303px;line-height:125%;font-family:'Crimson Pro';-inkscape-font-specification:'Crimson Pro, @wght=200';font-variant-ligatures:normal;font-variant-caps:normal;font-variant-numeric:normal;font-variant-east-asian:normal;font-variation-settings:'wght' 200;letter-spacing:0px;word-spacing:0px;display:inline;fill:#003399;fill-opacity:1;stroke:none;stroke-width:1.50142px;stroke-linecap:butt;stroke-linejoin:miter;stroke-opacity:1"
       x="619.01288"
       y="581.73212"
       id="text1763"><tspan
         sodipodi:role="line"
         id="tspan1761"
         x="619.01288"
         y="581.73212"
         style="fill:#003399;stroke-width:1.50142px">dense/fully connected layer</tspan></text>
    <path
       class="link"
       marker-end=""
       d="m 559.01165,596.06942 210.81367,83.02592"
       style="stroke:#505050;stroke-width:0.837479;stroke-opacity:1"
       id="path2" />
    <path
       class="link"
       marker-end=""
       d="M 559.01165,596.06942 769.82532,758.51145"
       style="stroke:#505050;stroke-width:0.837479;stroke-opacity:1"
       id="path4" />
    <path
       class="link"
       marker-end=""
       d="M 559.01165,596.06942 769.82532,837.92756"
       style="stroke:#505050;stroke-width:0.837479;stroke-opacity:1"
       id="path6" />
    <path
       class="link"
       marker-end=""
       d="M 559.01165,596.06942 769.82532,917.34366"
       style="stroke:#505050;stroke-width:0.837479;stroke-opacity:1"
       id="path8" />
    <path
       class="link"
       marker-end=""
       d="m 559.01165,653.82658 210.81367,25.26876"
       style="stroke:#505050;stroke-width:0.837479;stroke-opacity:1"
       id="path10" />
    <path
       class="link"
       marker-end=""
       d="M 559.01165,653.82658 769.82532,758.51145"
       style="stroke:#505050;stroke-width:0.837479;stroke-opacity:1"
       id="path12" />
    <path
       class="link"
       marker-end=""
       d="M 559.01165,653.82658 769.82532,837.92756"
       style="stroke:#505050;stroke-width:0.837479;stroke-opacity:1"
       id="path14" />
    <path
       class="link"
       marker-end=""
       d="M 559.01165,653.82658 769.82532,917.34366"
       style="stroke:#505050;stroke-width:0.837479;stroke-opacity:1"
       id="path16" />
    <path
       class="link"
       marker-end=""
       d="M 559.01165,711.58375 769.82532,679.09534"
       style="stroke:#505050;stroke-width:0.837479;stroke-opacity:1"
       id="path18" />
    <path
       class="link"
       marker-end=""
       d="m 559.01165,711.58375 210.81367,46.9277"
       style="stroke:#505050;stroke-width:0.837479;stroke-opacity:1"
       id="path20" />
    <path
       class="link"
       marker-end=""
       d="M 559.01165,711.58375 769.82532,837.92756"
       style="stroke:#505050;stroke-width:0.837479;stroke-opacity:1"
       id="path22" />
    <path
       class="link"
       marker-end=""
       d="M 559.01165,711.58375 769.82532,917.34366"
       style="stroke:#505050;stroke-width:0.837479;stroke-opacity:1"
       id="path24" />
    <path
       class="link"
       marker-end=""
       d="M 559.01165,769.34092 769.82532,679.09534"
       style="stroke:#505050;stroke-width:0.837479;stroke-opacity:1"
       id="path26" />
    <path
       class="link"
       marker-end=""
       d="M 559.01165,769.34092 769.82532,758.51145"
       style="stroke:#505050;stroke-width:0.837479;stroke-opacity:1"
       id="path28" />
    <path
       class="link"
       marker-end=""
       d="m 559.01165,769.34092 210.81367,68.58664"
       style="stroke:#505050;stroke-width:0.837479;stroke-opacity:1"
       id="path30" />
    <path
       class="link"
       marker-end=""
       d="M 559.01165,769.34092 769.82532,917.34366"
       style="stroke:#505050;stroke-width:0.837479;stroke-opacity:1"
       id="path32" />
    <path
       class="link"
       marker-end=""
       d="M 559.01165,827.09809 769.82532,679.09534"
       style="stroke:#505050;stroke-width:0.837479;stroke-opacity:1"
       id="path34" />
    <path
       class="link"
       marker-end=""
       d="M 559.01165,827.09809 769.82532,758.51145"
       style="stroke:#505050;stroke-width:0.837479;stroke-opacity:1"
       id="path36" />
    <path
       class="link"
       marker-end=""
       d="m 559.01165,827.09809 210.81367,10.82947"
       style="stroke:#505050;stroke-width:0.837479;stroke-opacity:1"
       id="path38" />
    <path
       class="link"
       marker-end=""
       d="m 559.01165,827.09809 210.81367,90.24557"
       style="stroke:#505050;stroke-width:0.837479;stroke-opacity:1"
       id="path40" />
    <path
       class="link"
       marker-end=""
       d="M 559.01165,884.85526 769.82532,679.09534"
       style="stroke:#505050;stroke-width:0.837479;stroke-opacity:1"
       id="path42" />
    <path
       class="link"
       marker-end=""
       d="M 559.01165,884.85526 769.82532,758.51145"
       style="stroke:#505050;stroke-width:0.837479;stroke-opacity:1"
       id="path44" />
    <path
       class="link"
       marker-end=""
       d="m 559.01165,884.85526 210.81367,-46.9277"
       style="stroke:#505050;stroke-width:0.837479;stroke-opacity:1"
       id="path46" />
    <path
       class="link"
       marker-end=""
       d="m 559.01165,884.85526 210.81367,32.4884"
       style="stroke:#505050;stroke-width:0.837479;stroke-opacity:1"
       id="path48" />
    <path
       class="link"
       marker-end=""
       d="M 559.01165,942.61242 769.82532,679.09534"
       style="stroke:#505050;stroke-width:0.837479;stroke-opacity:1"
       id="path50" />
    <path
       class="link"
       marker-end=""
       d="M 559.01165,942.61242 769.82532,758.51145"
       style="stroke:#505050;stroke-width:0.837479;stroke-opacity:1"
       id="path52" />
    <path
       class="link"
       marker-end=""
       d="M 559.01165,942.61242 769.82532,837.92756"
       style="stroke:#505050;stroke-width:0.837479;stroke-opacity:1"
       id="path54" />
    <path
       class="link"
       marker-end=""
       d="M 559.01165,942.61242 769.82532,917.34366"
       style="stroke:#505050;stroke-width:0.837479;stroke-opacity:1"
       id="path56" />
    <path
       class="link"
       marker-end=""
       d="M 559.01165,1000.3696 769.82532,679.09534"
       style="stroke:#505050;stroke-width:0.837479;stroke-opacity:1"
       id="path58" />
    <path
       class="link"
       marker-end=""
       d="M 559.01165,1000.3696 769.82532,758.51145"
       style="stroke:#505050;stroke-width:0.837479;stroke-opacity:1"
       id="path60" />
    <path
       class="link"
       marker-end=""
       d="M 559.01165,1000.3696 769.82532,837.92756"
       style="stroke:#505050;stroke-width:0.837479;stroke-opacity:1"
       id="path62" />
    <path
       class="link"
       marker-end=""
       d="M 559.01165,1000.3696 769.82532,917.34366"
       style="stroke:#505050;stroke-width:0.837479;stroke-opacity:1"
       id="path64" />
    <path
       class="link"
       marker-end=""
       d="m 769.82532,679.09534 210.81366,61.367"
       style="stroke:#505050;stroke-width:0.837479;stroke-opacity:1"
       id="path66" />
    <path
       class="link"
       marker-end=""
       d="M 769.82532,679.09534 980.63898,798.2195"
       style="stroke:#505050;stroke-width:0.837479;stroke-opacity:1"
       id="path68" />
    <path
       class="link"
       marker-end=""
       d="M 769.82532,679.09534 980.63898,855.97667"
       style="stroke:#505050;stroke-width:0.837479;stroke-opacity:1"
       id="path70" />
    <path
       class="link"
       marker-end=""
       d="M 769.82532,758.51145 980.63898,740.46234"
       style="stroke:#505050;stroke-width:0.837479;stroke-opacity:1"
       id="path72" />
    <path
       class="link"
       marker-end=""
       d="M 769.82532,758.51145 980.63898,798.2195"
       style="stroke:#505050;stroke-width:0.837479;stroke-opacity:1"
       id="path74" />
    <path
       class="link"
       marker-end=""
       d="m 769.82532,758.51145 210.81366,97.46522"
       style="stroke:#505050;stroke-width:0.837479;stroke-opacity:1"
       id="path76" />
    <path
       class="link"
       marker-end=""
       d="M 769.82532,837.92756 980.63898,740.46234"
       style="stroke:#505050;stroke-width:0.837479;stroke-opacity:1"
       id="path78" />
    <path
       class="link"
       marker-end=""
       d="M 769.82532,837.92756 980.63898,798.2195"
       style="stroke:#505050;stroke-width:0.837479;stroke-opacity:1"
       id="path80" />
    <path
       class="link"
       marker-end=""
       d="m 769.82532,837.92756 210.81366,18.04911"
       style="stroke:#505050;stroke-width:0.837479;stroke-opacity:1"
       id="path82" />
    <path
       class="link"
       marker-end=""
       d="M 769.82532,917.34366 980.63898,740.46234"
       style="stroke:#505050;stroke-width:0.837479;stroke-opacity:1"
       id="path84" />
    <path
       class="link"
       marker-end=""
       d="M 769.82532,917.34366 980.63898,798.2195"
       style="stroke:#505050;stroke-width:0.837479;stroke-opacity:1"
       id="path86" />
    <path
       class="link"
       marker-end=""
       d="M 769.82532,917.34366 980.63898,855.97667"
       style="stroke:#505050;stroke-width:0.837479;stroke-opacity:1"
       id="path88" />
    <circle
       r="23.824831"
       class="node"
       id="0_0"
       cx="559.01166"
       cy="596.0694"
       style="fill:#ffffff;stroke:#333333;stroke-width:1.44393" />
    <circle
       r="23.824831"
       class="node"
       id="0_1"
       cx="559.01166"
       cy="653.8266"
       style="fill:#ffffff;stroke:#333333;stroke-width:1.44393" />
    <circle
       r="23.824831"
       class="node"
       id="0_2"
       cx="559.01166"
       cy="711.58374"
       style="fill:#ffffff;stroke:#333333;stroke-width:1.44393" />
    <circle
       r="23.824831"
       class="node"
       id="0_3"
       cx="559.01166"
       cy="769.34094"
       style="fill:#ffffff;stroke:#333333;stroke-width:1.44393" />
    <circle
       r="23.824831"
       class="node"
       id="0_4"
       cx="559.01166"
       cy="827.09808"
       style="fill:#ffffff;stroke:#333333;stroke-width:1.44393" />
    <circle
       r="23.824831"
       class="node"
       id="0_5"
       cx="559.01166"
       cy="884.85529"
       style="fill:#ffffff;stroke:#333333;stroke-width:1.44393" />
    <circle
       r="23.824831"
       class="node"
       id="0_6"
       cx="559.01166"
       cy="942.61243"
       style="fill:#ffffff;stroke:#333333;stroke-width:1.44393" />
    <circle
       r="23.824831"
       class="node"
       id="0_7"
       cx="559.01166"
       cy="1000.3696"
       style="fill:#ffffff;stroke:#333333;stroke-width:1.44393" />
    <text
       class="text"
       dy="6.0645022"
       x="508.47412"
       y="1058.1267"
       style="font-size:17.3272px;stroke-width:1.44393"
       id="text98" />
    <circle
       r="23.824831"
       class="node"
       id="1_0"
       cx="769.82532"
       cy="679.09534"
       style="fill:#ffffff;stroke:#333333;stroke-width:1.44393" />
    <circle
       r="23.824831"
       class="node"
       id="1_1"
       cx="769.82532"
       cy="758.51147"
       style="fill:#ffffff;stroke:#333333;stroke-width:1.44393" />
    <circle
       r="23.824831"
       class="node"
       id="1_2"
       cx="769.82532"
       cy="837.92755"
       style="fill:#ffffff;stroke:#333333;stroke-width:1.44393" />
    <circle
       r="23.824831"
       class="node"
       id="1_3"
       cx="769.82532"
       cy="917.34369"
       style="fill:#ffffff;stroke:#333333;stroke-width:1.44393" />
    <text
       class="text"
       dy="6.0645022"
       x="719.28778"
       y="1058.1267"
       style="font-size:17.3272px;stroke-width:1.44393"
       id="text104" />
    <circle
       r="23.824831"
       class="node"
       id="2_0"
       cx="980.63898"
       cy="740.46234"
       style="fill:#ffffff;stroke:#333333;stroke-width:1.44393" />
    <circle
       r="23.824831"
       class="node"
       id="2_1"
       cx="980.63898"
       cy="798.21948"
       style="fill:#ffffff;stroke:#333333;stroke-width:1.44393" />
    <circle
       r="23.824831"
       class="node"
       id="2_2"
       cx="980.63898"
       cy="855.97668"
       style="fill:#ffffff;stroke:#333333;stroke-width:1.44393" />
    <text
       class="text"
       dy="6.0645022"
       x="930.10144"
       y="1058.1267"
       style="font-size:17.3272px;stroke-width:1.44393"
       id="text109" />
    <g
       transform="matrix(3.05713,0,0,3.05713,969.118,532.09563)"
       ns1:version="1.3.0"
       ns1:texconverter="pdflatex"
       ns1:pdfconverter="inkscape"
       ns1:text="$L_{1}$"
       ns1:preamble="/home/twin/.config/inkscape/extensions/textext/default_packages.tex"
       ns1:scale="2.2928496312015803"
       ns1:alignment="middle center"
       ns1:jacobian_sqrt="3.05713"
       id="g1088">
      <defs
         id="id-e9b76d52-7f6a-4eec-a6bd-786e5ccb2201">
        <g
           id="id-d70de40e-5d7b-4e7e-8481-aeac5c9f790c">
          <symbol
             overflow="visible"
             id="id-aa03cf9d-d3da-437d-bfb0-f678ba84479d">
            <path
               style="stroke:none"
               d=""
               id="id-0dcc221c-6fe0-471a-af4c-47bb18475d7a" />
          </symbol>
          <symbol
             overflow="visible"
             id="id-27a4c8a3-ad58-4032-8575-75d9559f171b">
            <path
               style="stroke:none"
               d="M 3.734375,-6.03125 C 3.8125,-6.390625 3.84375,-6.5 4.78125,-6.5 c 0.296875,0 0.375,0 0.375,-0.1875 0,-0.125 -0.109375,-0.125 -0.15625,-0.125 -0.328125,0 -1.140625,0.03125 -1.46875,0.03125 -0.296875,0 -1.03125,-0.03125 -1.328125,-0.03125 -0.0625,0 -0.1875,0 -0.1875,0.203125 0,0.109375 0.09375,0.109375 0.28125,0.109375 0.015625,0 0.203125,0 0.375,0.015625 0.171875,0.03125 0.265625,0.03125 0.265625,0.171875 0,0.03125 0,0.0625 -0.03125,0.1875 L 1.5625,-0.78125 c -0.09375,0.390625 -0.109375,0.46875 -0.90625,0.46875 -0.171875,0 -0.265625,0 -0.265625,0.203125 C 0.390625,0 0.484375,0 0.65625,0 h 4.625 C 5.515625,0 5.515625,0 5.578125,-0.171875 L 6.375,-2.328125 c 0.03125,-0.109375 0.03125,-0.125 0.03125,-0.140625 0,-0.03125 -0.03125,-0.109375 -0.109375,-0.109375 -0.09375,0 -0.109375,0.0625 -0.171875,0.21875 -0.34375,0.90625 -0.78125,2.046875 -2.5,2.046875 H 2.6875 c -0.140625,0 -0.171875,0 -0.21875,0 -0.109375,-0.015625 -0.140625,-0.03125 -0.140625,-0.109375 0,-0.03125 0,-0.046875 0.046875,-0.21875 z m 0,0"
               id="id-784cba29-4b7c-49c3-b0f4-1e013cf474c7" />
          </symbol>
          <symbol
             overflow="visible"
             id="id-68da49f5-14a1-4b92-82ef-9b7cd9d58387">
            <path
               style="stroke:none"
               d=""
               id="id-67895103-df60-426a-916d-9727bf775080" />
          </symbol>
          <symbol
             overflow="visible"
             id="id-c8ae99cc-ed60-485e-b011-0f96859725fd">
            <path
               style="stroke:none"
               d="m 2.328125,-4.4375 c 0,-0.1875 0,-0.1875 -0.203125,-0.1875 -0.453125,0.4375 -1.078125,0.4375 -1.359375,0.4375 v 0.25 c 0.15625,0 0.625,0 1,-0.1875 v 3.546875 c 0,0.234375 0,0.328125 -0.6875,0.328125 H 0.8125 V 0 c 0.125,0 0.984375,-0.03125 1.234375,-0.03125 0.21875,0 1.09375,0.03125 1.25,0.03125 V -0.25 H 3.03125 c -0.703125,0 -0.703125,-0.09375 -0.703125,-0.328125 z m 0,0"
               id="id-017e576e-5d42-4961-83d3-c62dc82d1ae7" />
          </symbol>
        </g>
      </defs>
      <g
         id="id-5226ff46-0498-4346-92d3-6593931b15c7"
         transform="translate(-149.103,-127.953)">
        <g
           style="fill:#000000;fill-opacity:1"
           id="id-629edb31-8ce5-4a47-8379-55efccb2cc83">
          <g
             transform="translate(148.712,134.765)"
             id="g1191">
            <path
               style="stroke:none"
               d="M 3.734375,-6.03125 C 3.8125,-6.390625 3.84375,-6.5 4.78125,-6.5 c 0.296875,0 0.375,0 0.375,-0.1875 0,-0.125 -0.109375,-0.125 -0.15625,-0.125 -0.328125,0 -1.140625,0.03125 -1.46875,0.03125 -0.296875,0 -1.03125,-0.03125 -1.328125,-0.03125 -0.0625,0 -0.1875,0 -0.1875,0.203125 0,0.109375 0.09375,0.109375 0.28125,0.109375 0.015625,0 0.203125,0 0.375,0.015625 0.171875,0.03125 0.265625,0.03125 0.265625,0.171875 0,0.03125 0,0.0625 -0.03125,0.1875 L 1.5625,-0.78125 c -0.09375,0.390625 -0.109375,0.46875 -0.90625,0.46875 -0.171875,0 -0.265625,0 -0.265625,0.203125 C 0.390625,0 0.484375,0 0.65625,0 h 4.625 C 5.515625,0 5.515625,0 5.578125,-0.171875 L 6.375,-2.328125 c 0.03125,-0.109375 0.03125,-0.125 0.03125,-0.140625 0,-0.03125 -0.03125,-0.109375 -0.109375,-0.109375 -0.09375,0 -0.109375,0.0625 -0.171875,0.21875 -0.34375,0.90625 -0.78125,2.046875 -2.5,2.046875 H 2.6875 c -0.140625,0 -0.171875,0 -0.21875,0 -0.109375,-0.015625 -0.140625,-0.03125 -0.140625,-0.109375 0,-0.03125 0,-0.046875 0.046875,-0.21875 z m 0,0"
               id="id-b16c0b3b-c57d-4467-bd27-6492c89b200d" />
          </g>
        </g>
        <g
           style="fill:#000000;fill-opacity:1"
           id="id-99933b12-26bf-4a63-a930-365ce5bb9f64">
          <g
             transform="translate(155.492,136.259)"
             id="g1195">
            <path
               style="stroke:none"
               d="m 2.328125,-4.4375 c 0,-0.1875 0,-0.1875 -0.203125,-0.1875 -0.453125,0.4375 -1.078125,0.4375 -1.359375,0.4375 v 0.25 c 0.15625,0 0.625,0 1,-0.1875 v 3.546875 c 0,0.234375 0,0.328125 -0.6875,0.328125 H 0.8125 V 0 c 0.125,0 0.984375,-0.03125 1.234375,-0.03125 0.21875,0 1.09375,0.03125 1.25,0.03125 V -0.25 H 3.03125 c -0.703125,0 -0.703125,-0.09375 -0.703125,-0.328125 z m 0,0"
               id="id-5dc085b0-e662-42c6-8983-224d08b898a9" />
          </g>
        </g>
      </g>
    </g>
    <g
       transform="matrix(3.05713,0,0,3.05713,758.642,531.88063)"
       ns1:version="1.3.0"
       ns1:texconverter="pdflatex"
       ns1:pdfconverter="inkscape"
       ns1:text="$L_0$"
       ns1:preamble="/home/twin/.config/inkscape/extensions/textext/default_packages.tex"
       ns1:scale="2.2928496312015803"
       ns1:alignment="middle center"
       ns1:jacobian_sqrt="3.05713"
       id="g1032"
       style="fill:#003399">
      <defs
         id="id-9778cccc-3218-4d43-8c0f-6c1eeafc9d5f">
        <g
           id="id-d1ddb10c-adbe-40c5-b0bc-93b19938e265">
          <symbol
             overflow="visible"
             id="id-a4999fc0-8682-4964-a712-94b92d734790">
            <path
               style="stroke:none"
               d=""
               id="id-bdd76c42-24da-472f-a5c5-08848a910d3a" />
          </symbol>
          <symbol
             overflow="visible"
             id="id-f12d88ed-6730-47f9-9540-b216dc2c50dc">
            <path
               style="stroke:none"
               d="M 3.734375,-6.03125 C 3.8125,-6.390625 3.84375,-6.5 4.78125,-6.5 c 0.296875,0 0.375,0 0.375,-0.1875 0,-0.125 -0.109375,-0.125 -0.15625,-0.125 -0.328125,0 -1.140625,0.03125 -1.46875,0.03125 -0.296875,0 -1.03125,-0.03125 -1.328125,-0.03125 -0.0625,0 -0.1875,0 -0.1875,0.203125 0,0.109375 0.09375,0.109375 0.28125,0.109375 0.015625,0 0.203125,0 0.375,0.015625 0.171875,0.03125 0.265625,0.03125 0.265625,0.171875 0,0.03125 0,0.0625 -0.03125,0.1875 L 1.5625,-0.78125 c -0.09375,0.390625 -0.109375,0.46875 -0.90625,0.46875 -0.171875,0 -0.265625,0 -0.265625,0.203125 C 0.390625,0 0.484375,0 0.65625,0 h 4.625 C 5.515625,0 5.515625,0 5.578125,-0.171875 L 6.375,-2.328125 c 0.03125,-0.109375 0.03125,-0.125 0.03125,-0.140625 0,-0.03125 -0.03125,-0.109375 -0.109375,-0.109375 -0.09375,0 -0.109375,0.0625 -0.171875,0.21875 -0.34375,0.90625 -0.78125,2.046875 -2.5,2.046875 H 2.6875 c -0.140625,0 -0.171875,0 -0.21875,0 -0.109375,-0.015625 -0.140625,-0.03125 -0.140625,-0.109375 0,-0.03125 0,-0.046875 0.046875,-0.21875 z m 0,0"
               id="id-c9a4ee4b-49c3-456f-98b1-ad1d3feec35b" />
          </symbol>
          <symbol
             overflow="visible"
             id="id-23cca738-bbf1-42fa-b191-9259fd479a4c">
            <path
               style="stroke:none"
               d=""
               id="id-ba2493e1-0b19-427c-8564-9f326d5387b0" />
          </symbol>
          <symbol
             overflow="visible"
             id="id-905efbbd-ee49-4b59-9bd7-4425aed0a91c">
            <path
               style="stroke:none"
               d="M 3.59375,-2.21875 C 3.59375,-2.984375 3.5,-3.546875 3.1875,-4.03125 2.96875,-4.34375 2.53125,-4.625 1.984375,-4.625 c -1.625,0 -1.625,1.90625 -1.625,2.40625 0,0.5 0,2.359375 1.625,2.359375 1.609375,0 1.609375,-1.859375 1.609375,-2.359375 z M 1.984375,-0.0625 c -0.328125,0 -0.75,-0.1875 -0.890625,-0.75 C 1,-1.21875 1,-1.796875 1,-2.3125 1,-2.828125 1,-3.359375 1.09375,-3.734375 1.25,-4.28125 1.6875,-4.4375 1.984375,-4.4375 c 0.375,0 0.734375,0.234375 0.859375,0.640625 0.109375,0.375 0.125,0.875 0.125,1.484375 0,0.515625 0,1.03125 -0.09375,1.46875 -0.140625,0.640625 -0.609375,0.78125 -0.890625,0.78125 z m 0,0"
               id="id-459475e7-c95f-4744-836a-daa8bd27f284" />
          </symbol>
        </g>
      </defs>
      <g
         id="id-34911394-eb6b-40b2-933a-4efee025306d"
         transform="translate(-149.103,-127.953)"
         style="fill:#003399">
        <g
           style="fill:#003399;fill-opacity:1"
           id="id-a5567474-6b3d-495c-8499-76d50999fada">
          <g
             transform="translate(148.712,134.765)"
             id="g1327"
             style="fill:#003399">
            <path
               style="stroke:none;fill:#003399"
               d="M 3.734375,-6.03125 C 3.8125,-6.390625 3.84375,-6.5 4.78125,-6.5 c 0.296875,0 0.375,0 0.375,-0.1875 0,-0.125 -0.109375,-0.125 -0.15625,-0.125 -0.328125,0 -1.140625,0.03125 -1.46875,0.03125 -0.296875,0 -1.03125,-0.03125 -1.328125,-0.03125 -0.0625,0 -0.1875,0 -0.1875,0.203125 0,0.109375 0.09375,0.109375 0.28125,0.109375 0.015625,0 0.203125,0 0.375,0.015625 0.171875,0.03125 0.265625,0.03125 0.265625,0.171875 0,0.03125 0,0.0625 -0.03125,0.1875 L 1.5625,-0.78125 c -0.09375,0.390625 -0.109375,0.46875 -0.90625,0.46875 -0.171875,0 -0.265625,0 -0.265625,0.203125 C 0.390625,0 0.484375,0 0.65625,0 h 4.625 C 5.515625,0 5.515625,0 5.578125,-0.171875 L 6.375,-2.328125 c 0.03125,-0.109375 0.03125,-0.125 0.03125,-0.140625 0,-0.03125 -0.03125,-0.109375 -0.109375,-0.109375 -0.09375,0 -0.109375,0.0625 -0.171875,0.21875 -0.34375,0.90625 -0.78125,2.046875 -2.5,2.046875 H 2.6875 c -0.140625,0 -0.171875,0 -0.21875,0 -0.109375,-0.015625 -0.140625,-0.03125 -0.140625,-0.109375 0,-0.03125 0,-0.046875 0.046875,-0.21875 z m 0,0"
               id="id-7056c884-c17a-4b8d-9c7a-7f3685003ce7" />
          </g>
        </g>
        <g
           style="fill:#003399;fill-opacity:1"
           id="id-094c8c5f-5180-4339-8ea1-427b79322741">
          <g
             transform="translate(155.492,136.259)"
             id="g1331"
             style="fill:#003399">
            <path
               style="stroke:none;fill:#003399"
               d="M 3.59375,-2.21875 C 3.59375,-2.984375 3.5,-3.546875 3.1875,-4.03125 2.96875,-4.34375 2.53125,-4.625 1.984375,-4.625 c -1.625,0 -1.625,1.90625 -1.625,2.40625 0,0.5 0,2.359375 1.625,2.359375 1.609375,0 1.609375,-1.859375 1.609375,-2.359375 z M 1.984375,-0.0625 c -0.328125,0 -0.75,-0.1875 -0.890625,-0.75 C 1,-1.21875 1,-1.796875 1,-2.3125 1,-2.828125 1,-3.359375 1.09375,-3.734375 1.25,-4.28125 1.6875,-4.4375 1.984375,-4.4375 c 0.375,0 0.734375,0.234375 0.859375,0.640625 0.109375,0.375 0.125,0.875 0.125,1.484375 0,0.515625 0,1.03125 -0.09375,1.46875 -0.140625,0.640625 -0.609375,0.78125 -0.890625,0.78125 z m 0,0"
               id="id-34d35e7c-c1a9-4429-baaa-0cb5cbeb5fbb" />
          </g>
        </g>
      </g>
    </g>
    <g
       transform="matrix(3.05713,0,0,3.05713,533.731,532.09563)"
       ns1:version="1.3.0"
       ns1:texconverter="pdflatex"
       ns1:pdfconverter="inkscape"
       ns1:text="$L_{-1}$"
       ns1:preamble="/home/twin/.config/inkscape/extensions/textext/default_packages.tex"
       ns1:scale="2.2928496312015803"
       ns1:alignment="middle center"
       ns1:jacobian_sqrt="3.05713"
       id="g1066">
      <defs
         id="id-2fec608d-11b9-49bb-9878-1e9eb7205dd5">
        <g
           id="id-3a967120-2f1c-49a8-83ae-4908a5db0915">
          <symbol
             overflow="visible"
             id="id-443c3ba0-11d3-4890-a11f-bf4af40b94ca">
            <path
               style="stroke:none"
               d=""
               id="id-34ddddb8-265f-41ce-a40f-5a58a8e515a9" />
          </symbol>
          <symbol
             overflow="visible"
             id="id-def3c097-1072-498c-aa76-26c1634ab95b">
            <path
               style="stroke:none"
               d="M 3.734375,-6.03125 C 3.8125,-6.390625 3.84375,-6.5 4.78125,-6.5 c 0.296875,0 0.375,0 0.375,-0.1875 0,-0.125 -0.109375,-0.125 -0.15625,-0.125 -0.328125,0 -1.140625,0.03125 -1.46875,0.03125 -0.296875,0 -1.03125,-0.03125 -1.328125,-0.03125 -0.0625,0 -0.1875,0 -0.1875,0.203125 0,0.109375 0.09375,0.109375 0.28125,0.109375 0.015625,0 0.203125,0 0.375,0.015625 0.171875,0.03125 0.265625,0.03125 0.265625,0.171875 0,0.03125 0,0.0625 -0.03125,0.1875 L 1.5625,-0.78125 c -0.09375,0.390625 -0.109375,0.46875 -0.90625,0.46875 -0.171875,0 -0.265625,0 -0.265625,0.203125 C 0.390625,0 0.484375,0 0.65625,0 h 4.625 C 5.515625,0 5.515625,0 5.578125,-0.171875 L 6.375,-2.328125 c 0.03125,-0.109375 0.03125,-0.125 0.03125,-0.140625 0,-0.03125 -0.03125,-0.109375 -0.109375,-0.109375 -0.09375,0 -0.109375,0.0625 -0.171875,0.21875 -0.34375,0.90625 -0.78125,2.046875 -2.5,2.046875 H 2.6875 c -0.140625,0 -0.171875,0 -0.21875,0 -0.109375,-0.015625 -0.140625,-0.03125 -0.140625,-0.109375 0,-0.03125 0,-0.046875 0.046875,-0.21875 z m 0,0"
               id="id-1cf9865f-c7ed-4d1c-bed5-19f2e9f6c909" />
          </symbol>
          <symbol
             overflow="visible"
             id="id-d743a1f4-cccd-4fe1-a497-3705e76bc42f">
            <path
               style="stroke:none"
               d=""
               id="id-8b8d3bf7-5491-4020-928c-81252a0aa8ce" />
          </symbol>
          <symbol
             overflow="visible"
             id="id-544eb090-feb0-48a3-a005-ee3dbed582f7">
            <path
               style="stroke:none"
               d="m 5.1875,-1.578125 c 0.109375,0 0.28125,0 0.28125,-0.15625 0,-0.1875 -0.171875,-0.1875 -0.28125,-0.1875 H 1.03125 c -0.109375,0 -0.28125,0 -0.28125,0.171875 0,0.171875 0.15625,0.171875 0.28125,0.171875 z m 0,0"
               id="id-5ad707ba-2b8c-4c56-a5de-d545343823d4" />
          </symbol>
          <symbol
             overflow="visible"
             id="id-3b512ef2-4602-4128-a801-7a6d6056f7b3">
            <path
               style="stroke:none"
               d=""
               id="id-52724bf6-2aab-449d-a3e0-2aee56c1e878" />
          </symbol>
          <symbol
             overflow="visible"
             id="id-403b43bf-68c8-492b-9165-32d6fa03b93a">
            <path
               style="stroke:none"
               d="m 2.328125,-4.4375 c 0,-0.1875 0,-0.1875 -0.203125,-0.1875 -0.453125,0.4375 -1.078125,0.4375 -1.359375,0.4375 v 0.25 c 0.15625,0 0.625,0 1,-0.1875 v 3.546875 c 0,0.234375 0,0.328125 -0.6875,0.328125 H 0.8125 V 0 c 0.125,0 0.984375,-0.03125 1.234375,-0.03125 0.21875,0 1.09375,0.03125 1.25,0.03125 V -0.25 H 3.03125 c -0.703125,0 -0.703125,-0.09375 -0.703125,-0.328125 z m 0,0"
               id="id-623a3b8b-73a2-472d-87d5-6e83acc69211" />
          </symbol>
        </g>
      </defs>
      <g
         id="id-5ac95746-7f5e-41df-9037-1a6f3c15ef53"
         transform="translate(-149.103,-127.953)">
        <g
           style="fill:#000000;fill-opacity:1"
           id="id-a0daa726-9e16-4cd1-b273-454b1ef66cdf">
          <g
             transform="translate(148.712,134.765)"
             id="g1474">
            <path
               style="stroke:none"
               d="M 3.734375,-6.03125 C 3.8125,-6.390625 3.84375,-6.5 4.78125,-6.5 c 0.296875,0 0.375,0 0.375,-0.1875 0,-0.125 -0.109375,-0.125 -0.15625,-0.125 -0.328125,0 -1.140625,0.03125 -1.46875,0.03125 -0.296875,0 -1.03125,-0.03125 -1.328125,-0.03125 -0.0625,0 -0.1875,0 -0.1875,0.203125 0,0.109375 0.09375,0.109375 0.28125,0.109375 0.015625,0 0.203125,0 0.375,0.015625 0.171875,0.03125 0.265625,0.03125 0.265625,0.171875 0,0.03125 0,0.0625 -0.03125,0.1875 L 1.5625,-0.78125 c -0.09375,0.390625 -0.109375,0.46875 -0.90625,0.46875 -0.171875,0 -0.265625,0 -0.265625,0.203125 C 0.390625,0 0.484375,0 0.65625,0 h 4.625 C 5.515625,0 5.515625,0 5.578125,-0.171875 L 6.375,-2.328125 c 0.03125,-0.109375 0.03125,-0.125 0.03125,-0.140625 0,-0.03125 -0.03125,-0.109375 -0.109375,-0.109375 -0.09375,0 -0.109375,0.0625 -0.171875,0.21875 -0.34375,0.90625 -0.78125,2.046875 -2.5,2.046875 H 2.6875 c -0.140625,0 -0.171875,0 -0.21875,0 -0.109375,-0.015625 -0.140625,-0.03125 -0.140625,-0.109375 0,-0.03125 0,-0.046875 0.046875,-0.21875 z m 0,0"
               id="id-398c5709-470c-43f5-955c-ffee92728704" />
          </g>
        </g>
        <g
           style="fill:#000000;fill-opacity:1"
           id="id-25727798-cba4-4c55-a32e-3376fdafabb1">
          <g
             transform="translate(155.492,136.259)"
             id="g1478">
            <path
               style="stroke:none"
               d="m 5.1875,-1.578125 c 0.109375,0 0.28125,0 0.28125,-0.15625 0,-0.1875 -0.171875,-0.1875 -0.28125,-0.1875 H 1.03125 c -0.109375,0 -0.28125,0 -0.28125,0.171875 0,0.171875 0.15625,0.171875 0.28125,0.171875 z m 0,0"
               id="id-7b784349-9b33-427a-a090-80c2fe526735" />
          </g>
        </g>
        <g
           style="fill:#000000;fill-opacity:1"
           id="id-40a53dcc-7b66-40a0-9d25-9fa660bfa661">
          <g
             transform="translate(161.719,136.259)"
             id="g1482">
            <path
               style="stroke:none"
               d="m 2.328125,-4.4375 c 0,-0.1875 0,-0.1875 -0.203125,-0.1875 -0.453125,0.4375 -1.078125,0.4375 -1.359375,0.4375 v 0.25 c 0.15625,0 0.625,0 1,-0.1875 v 3.546875 c 0,0.234375 0,0.328125 -0.6875,0.328125 H 0.8125 V 0 c 0.125,0 0.984375,-0.03125 1.234375,-0.03125 0.21875,0 1.09375,0.03125 1.25,0.03125 V -0.25 H 3.03125 c -0.703125,0 -0.703125,-0.09375 -0.703125,-0.328125 z m 0,0"
               id="id-8ba84c7e-3d8f-494f-9c3c-4fae4ced043f" />
          </g>
        </g>
      </g>
    </g>
  </g>
  <g
     inkscape:groupmode="layer"
     id="layer2"
     inkscape:label="Layer 2"
     style="display:inline"
     transform="translate(-533.72985,-522.0161)">
    <path
       class="link"
       marker-end=""
       d="m 559.01165,596.06942 210.81367,83.02592"
       style="stroke:#cc0000;stroke-width:0.837479;stroke-opacity:1"
       id="path1719" />
    <path
       class="link"
       marker-end=""
       d="m 559.01165,653.82658 210.81367,25.26876"
       style="stroke:#cc0000;stroke-width:0.837479;stroke-opacity:1"
       id="path1721" />
    <path
       class="link"
       marker-end=""
       d="M 559.01165,711.58375 769.82532,679.09534"
       style="stroke:#cc0000;stroke-width:0.837479;stroke-opacity:1"
       id="path1723" />
    <path
       class="link"
       marker-end=""
       d="M 559.01165,769.34092 769.82532,679.09534"
       style="stroke:#cc0000;stroke-width:0.837479;stroke-opacity:1"
       id="path1725" />
    <path
       class="link"
       marker-end=""
       d="M 559.01165,827.09809 769.82532,679.09534"
       style="stroke:#cc0000;stroke-width:0.837479;stroke-opacity:1"
       id="path1727" />
    <path
       class="link"
       marker-end=""
       d="M 559.01165,884.85526 769.82532,679.09534"
       style="stroke:#cc0000;stroke-width:0.837479;stroke-opacity:1"
       id="path1729" />
    <path
       class="link"
       marker-end=""
       d="M 559.01165,942.61242 769.82532,679.09534"
       style="stroke:#cc0000;stroke-width:0.837479;stroke-opacity:1"
       id="path1731" />
    <path
       class="link"
       marker-end=""
       d="M 559.01165,1000.3696 769.82532,679.09534"
       style="stroke:#cc0000;stroke-width:0.837479;stroke-opacity:1"
       id="path1733" />
    <circle
       r="23.824831"
       class="node"
       id="circle1735"
       cx="559.01166"
       cy="596.0694"
       style="fill:#ffffff;stroke:#cc0000;stroke-width:1.44393" />
    <circle
       r="23.824831"
       class="node"
       id="circle1737"
       cx="559.01166"
       cy="653.8266"
       style="fill:#ffffff;stroke:#cc0000;stroke-width:1.44393" />
    <circle
       r="23.824831"
       class="node"
       id="circle1739"
       cx="559.01166"
       cy="711.58374"
       style="fill:#ffffff;stroke:#cc0000;stroke-width:1.44393" />
    <circle
       r="23.824831"
       class="node"
       id="circle1741"
       cx="559.01166"
       cy="769.34094"
       style="fill:#ffffff;stroke:#cc0000;stroke-width:1.44393" />
    <circle
       r="23.824831"
       class="node"
       id="circle1743"
       cx="559.01166"
       cy="827.09808"
       style="fill:#ffffff;stroke:#cc0000;stroke-width:1.44393" />
    <circle
       r="23.824831"
       class="node"
       id="circle1745"
       cx="559.01166"
       cy="884.85529"
       style="fill:#ffffff;stroke:#cc0000;stroke-width:1.44393" />
    <circle
       r="23.824831"
       class="node"
       id="circle1747"
       cx="559.01166"
       cy="942.61243"
       style="fill:#ffffff;stroke:#cc0000;stroke-width:1.44393" />
    <circle
       r="23.824831"
       class="node"
       id="circle1749"
       cx="559.01166"
       cy="1000.3696"
       style="fill:#ffffff;stroke:#cc0000;stroke-width:1.44393" />
    <circle
       r="23.824831"
       class="node"
       id="circle1751"
       cx="769.82532"
       cy="679.09534"
       style="fill:#ffffff;stroke:#cc0000;stroke-width:1.44393" />
  </g>
</svg>
