<svg viewBox="-636 -632.5 1272 1265" width="1272" height="1265" style="background-color: rgb(255, 255, 255);" xmlns="http://www.w3.org/2000/svg"><path d="M-123.89863489326532,1.3192372521380054L-135.6388065401985,0.026460308942189315M-135.6388065401985,-54.88211799550514L-135.6388065401985,0.026460308942189315M-135.6388065401985,0.026460308942189315L-151.4861336913072,23.265160960236443M-123.89863489326531,-53.58934105230933L-123.89863489326532,1.3192372521380054M-123.89863489326532,1.3192372521380054L-139.745962044374,24.557937903432254" style="fill:none;stroke:rgb(0,0,0);stroke-width:1;stroke-linecap:round"></path><path d="M-123.89863489326531,1.319237252138006L-135.6388065401985,0.026460308942192277L-135.6388065401985,-54.88211799550514zM-123.89863489326531,-53.58934105230932L-123.89863489326531,1.319237252138006L-135.6388065401985,-54.88211799550514z" style="fill:rgb(238,238,238); fill-opacity: 0.4"></path><path d="M-129.19132203445315,7.794613489994753L-140.9314936813863,6.501836546798939M-140.9314936813863,-4.659173868629988L-140.9314936813863,6.501836546798939M-140.9314936813863,6.501836546798939L-144.15270590089682,11.225458757012358M-55.805793572621326,4.934605266869865L-104.58208267311315,-0.4364288048714242M-104.58208267311315,-41.0963283735728L-104.58208267311315,-0.4364288048714242M-104.58208267311315,-0.4364288048714242L-116.31705652043722,16.771870221734563" style="fill:none;stroke:rgb(0,0,0);stroke-width:1;stroke-linecap:round"></path><path d="M-151.48613369130717,23.26516096023644L-135.6388065401985,0.026460308942192277L-123.89863489326531,1.319237252138006z" style="fill:rgb(238,238,238); fill-opacity: 0.4"></path><path d="M-129.19132203445315,7.794613489994752L-140.9314936813863,6.5018365467989385L-140.9314936813863,-4.659173868629988z" style="fill:rgb(153,221,255); fill-opacity: 0.4"></path><path d="M-129.19132203445315,-3.366396925434173L-129.19132203445315,7.794613489994753M-129.19132203445315,7.794613489994753L-132.41253425396366,12.518235700208173M-129.19132131353726,-3.36639706150324L-129.19132131353726,7.794613353925688M-129.19132131353726,7.794613353925688L-132.41253360286564,12.518235666520859M-129.19132131353726,7.794613353925688L-109.69398272341488,1.9751492697189337" style="fill:none;stroke:rgb(0,0,0);stroke-width:1;stroke-linecap:round"></path><path d="M-144.15270590089682,11.225458757012355L-140.9314936813863,6.5018365467989385L-129.19132203445315,7.794613489994752z" style="fill:rgb(153,221,255); fill-opacity: 0.4"></path><path d="M-129.19132203445315,-3.366396925434173L-140.9314936813863,-4.659173868629988M-140.9314936813863,-4.659173868629988L-144.15270590089682,0.06444834158343127" style="fill:none;stroke:rgb(0,0,0);stroke-width:1;stroke-linecap:round"></path><path d="M-129.19132203445315,-3.366396925434175L-129.19132203445315,7.794613489994752L-140.9314936813863,-4.659173868629988z" style="fill:rgb(153,221,255); fill-opacity: 0.4"></path><path d="M-123.89863489326531,-53.58934105230933L-135.6388065401985,-54.88211799550514M-135.6388065401985,-54.88211799550514L-151.48613369130717,-31.643417344210896" style="fill:none;stroke:rgb(0,0,0);stroke-width:1;stroke-linecap:round"></path><path d="M-140.9314936813863,-4.659173868629988L-140.9314936813863,6.5018365467989385L-144.15270590089682,0.06444834158343149z" style="fill:rgb(153,221,255); fill-opacity: 0.4"></path><path d="M-129.19132203445315,-3.366396925434173L-132.41253425396366,1.357225284779246M-129.19132131353726,-3.36639706150324L-132.41253360286564,1.357225251091933M-129.19132131353726,-3.36639706150324L-109.69398272341488,1.9751492697189337" style="fill:none;stroke:rgb(0,0,0);stroke-width:1;stroke-linecap:round"></path><path d="M-129.1913221404303,-3.3663969371039197L-129.1913221404303,7.794613478325008L-132.41253435994076,12.518235688538425z" style="fill:rgb(255,187,187); fill-opacity: 0.4"></path><path d="M-132.41253425396363,12.51823570020817L-129.19132203445315,7.794613489994752L-129.19132203445315,-3.366396925434175z" style="fill:rgb(153,221,255); fill-opacity: 0.4"></path><path d="M-123.89863489326531,-53.58934105230933L-139.745962044374,-30.350640401015077" style="fill:none;stroke:rgb(0,0,0);stroke-width:1;stroke-linecap:round"></path><path d="M-140.9314936813863,6.5018365467989385L-144.15270590089682,11.225458757012355L-144.15270590089682,0.06444834158343149zM-132.41253425396363,12.51823570020817L-144.15270590089682,11.225458757012355L-129.19132203445315,7.794613489994752z" style="fill:rgb(153,221,255); fill-opacity: 0.4"></path><path d="M-56.31320359971275,-11.42433155965378L-105.08949270020457,-16.79536563139507M-105.08949270020457,-21.868552183862764L-105.08949270020457,-16.79536563139507M-105.08949270020457,-16.79536563139507L-106.55368007270933,-14.648264626752606" style="fill:none;stroke:rgb(0,0,0);stroke-width:1;stroke-linecap:round"></path><path d="M-129.1913221404303,7.794613478325008L-129.1913221404303,-3.3663969371039197L-109.69398346406429,1.975149015808248z" style="fill:rgb(255,187,187); fill-opacity: 0.4"></path><path d="M-55.805793572621326,4.9346052668698634L-104.58208267311315,-0.4364288048714235L-104.58208267311315,-41.0963283735728zM-139.745962044374,24.557937903432254L-123.89863489326531,1.319237252138006L-123.89863489326531,-53.58934105230932z" style="fill:rgb(238,238,238); fill-opacity: 0.4"></path><path d="M-132.41253425396363,1.3572252847792454L-129.19132203445315,-3.366396925434175L-140.9314936813863,-4.659173868629988z" style="fill:rgb(153,221,255); fill-opacity: 0.4"></path><path d="M-144.15270590089682,0.06444834158343127L-144.15270590089682,11.225458757012358M-144.15270590089682,11.225458757012358L-132.41253425396366,12.518235700208173M-56.31320359971275,-16.497518112121472L-105.08949270020457,-21.868552183862764M-105.08949270020457,-21.868552183862764L-106.55368007270933,-19.7214511792203" style="fill:none;stroke:rgb(0,0,0);stroke-width:1;stroke-linecap:round"></path><path d="M-132.41253435994076,12.518235688538425L-129.1913221404303,7.794613478325008L-109.69398346406429,1.975149015808248z" style="fill:rgb(255,187,187); fill-opacity: 0.4"></path><path d="M-55.805793572621326,-35.72529430183152L-55.805793572621326,4.934605266869865M-55.805793572621326,4.934605266869865L-67.5407674199454,22.142904293475848" style="fill:none;stroke:rgb(0,0,0);stroke-width:1;stroke-linecap:round"></path><path d="M-105.08949270020456,-21.868552183862764L-105.08949270020456,-16.795365631395068L-106.55368007270933,-19.7214511792203zM-144.15270590089682,0.06444834158343149L-132.41253425396363,1.3572252847792454L-140.9314936813863,-4.659173868629988zM-105.08949270020456,-16.795365631395068L-106.55368007270933,-14.648264626752606L-106.55368007270933,-19.7214511792203z" style="fill:rgb(153,221,255); fill-opacity: 0.4"></path><path d="M-129.1913221404303,-3.3663969371039197L-132.41253435994076,12.518235688538425L-132.41253435994076,1.3572252731095007z" style="fill:rgb(255,187,187); fill-opacity: 0.4"></path><path d="M-132.41253425396363,1.3572252847792454L-132.41253425396363,12.51823570020817L-129.19132203445315,-3.366396925434175z" style="fill:rgb(153,221,255); fill-opacity: 0.4"></path><path d="M-132.41253425396366,1.357225284779246L-132.41253425396366,12.518235700208173M-132.41253360286564,12.518235666520859L-132.41253360286564,1.357225251091933M-132.41253360286564,12.518235666520859L-109.69398272341488,1.9751492697189337" style="fill:none;stroke:rgb(0,0,0);stroke-width:1;stroke-linecap:round"></path><path d="M-56.313203599712736,-11.424331559653783L-105.08949270020456,-16.795365631395068L-105.08949270020456,-21.868552183862764z" style="fill:rgb(153,221,255); fill-opacity: 0.4"></path><path d="M-106.55368007270933,-19.7214511792203L-106.55368007270933,-14.648264626752606M-106.55368007270933,-14.648264626752606L-57.77739097221751,-9.277230555011318" style="fill:none;stroke:rgb(0,0,0);stroke-width:1;stroke-linecap:round"></path><path d="M-144.15270590089682,11.225458757012355L-132.41253425396363,12.51823570020817L-132.41253425396363,1.3572252847792454zM-106.55368007270933,-14.648264626752606L-105.08949270020456,-16.795365631395068L-56.313203599712736,-11.424331559653783zM-144.15270590089682,0.06444834158343149L-144.15270590089682,11.225458757012355L-132.41253425396363,1.3572252847792454z" style="fill:rgb(153,221,255); fill-opacity: 0.4"></path><path d="M-129.1913221404303,-3.3663969371039197L-132.41253435994076,1.3572252731095007L-109.69398346406429,1.975149015808248z" style="fill:rgb(255,187,187); fill-opacity: 0.4"></path><path d="M-135.6388065401985,-54.88211799550514L-135.6388065401985,0.026460308942192277L-151.48613369130717,-31.643417344210892z" style="fill:rgb(238,238,238); fill-opacity: 0.4"></path><path d="M-144.15270590089682,0.06444834158343127L-132.41253425396366,1.357225284779246M-106.55368007270933,-19.7214511792203L-57.77739097221751,-14.35041710747901" style="fill:none;stroke:rgb(0,0,0);stroke-width:1;stroke-linecap:round"></path><path d="M-116.31705652043722,16.77187022173456L-104.58208267311315,-0.4364288048714235L-55.805793572621326,4.9346052668698634z" style="fill:rgb(238,238,238); fill-opacity: 0.4"></path><path d="M-132.41253435994076,1.3572252731095007L-132.41253435994076,12.518235688538425L-109.69398346406429,1.975149015808248z" style="fill:rgb(255,187,187); fill-opacity: 0.4"></path><path d="M-55.805793572621326,-35.72529430183152L-104.58208267311315,-41.0963283735728M-104.58208267311315,-41.0963283735728L-116.31705652043722,-23.88802934696682M-132.41253360286564,1.357225251091933L-109.69398272341488,1.9751492697189337" style="fill:none;stroke:rgb(0,0,0);stroke-width:1;stroke-linecap:round"></path><path d="M-106.55368007270933,-19.7214511792203L-57.777390972217496,-14.350417107479013L-105.08949270020456,-21.868552183862764zM-56.313203599712736,-16.497518112121476L-56.313203599712736,-11.424331559653783L-105.08949270020456,-21.868552183862764z" style="fill:rgb(153,221,255); fill-opacity: 0.4"></path><path d="M-139.745962044374,24.557937903432254L-151.48613369130717,23.26516096023644L-123.89863489326531,1.319237252138006z" style="fill:rgb(238,238,238); fill-opacity: 0.4"></path><path d="M-106.55368007270933,-19.7214511792203L-106.55368007270933,-14.648264626752606L-57.777390972217496,-14.350417107479013z" style="fill:rgb(153,221,255); fill-opacity: 0.4"></path><path d="M-55.80579357262132,-35.72529430183152L-55.805793572621326,4.9346052668698634L-104.58208267311315,-41.0963283735728z" style="fill:rgb(238,238,238); fill-opacity: 0.4"></path><path d="M-57.777390972217496,-9.277230555011318L-106.55368007270933,-14.648264626752606L-56.313203599712736,-11.424331559653783zM-57.777390972217496,-14.350417107479013L-56.313203599712736,-16.497518112121476L-105.08949270020456,-21.868552183862764z" style="fill:rgb(153,221,255); fill-opacity: 0.4"></path><path d="M-56.31320359971275,-16.497518112121472L-56.31320359971275,-11.42433155965378M-56.31320359971275,-11.42433155965378L-57.77739097221751,-9.277230555011318M-56.31320284712925,-16.497517727049498L-56.31320284712925,-11.424331295535996M-56.31320284712925,-11.424331295535996L-57.77738994036243,-9.27723070042055M-56.31320284712925,-11.424331295535996L-36.494258947406024,-9.451533916950064M23.782959273814242,11.731389977485819L-35.47482865187958,5.206178571813064M-35.47482865187958,-28.2346135350335L-35.47482865187958,5.206178571813064M-35.47482865187958,5.206178571813064L-45.12627454747451,19.359168529125938" style="fill:none;stroke:rgb(0,0,0);stroke-width:1;stroke-linecap:round"></path><path d="M-106.55368007270933,-14.648264626752606L-57.777390972217496,-9.277230555011318L-57.777390972217496,-14.350417107479013z" style="fill:rgb(153,221,255); fill-opacity: 0.4"></path><path d="M-56.31320359971275,-16.497518112121472L-57.77739097221751,-14.35041710747901M-56.31320284712925,-16.497517727049498L-57.77738994036243,-14.350417131934051M-56.31320284712925,-16.497517727049498L-36.494258947406024,-9.451533916950064" style="fill:none;stroke:rgb(0,0,0);stroke-width:1;stroke-linecap:round"></path><path d="M-56.31320375657445,-16.497518129394408L-56.31320375657445,-11.424331576926715L-57.77739112907921,-9.277230572284251z" style="fill:rgb(255,187,187); fill-opacity: 0.4"></path><path d="M-57.777390972217496,-9.277230555011318L-56.313203599712736,-11.424331559653783L-56.313203599712736,-16.497518112121476z" style="fill:rgb(153,221,255); fill-opacity: 0.4"></path><path d="M-104.58208267311315,-41.0963283735728L-104.58208267311315,-0.4364288048714235L-116.31705652043722,-23.88802934696682zM-135.6388065401985,0.026460308942192277L-151.48613369130717,23.26516096023644L-151.48613369130717,-31.643417344210892zM-139.745962044374,-30.35064040101508L-123.89863489326531,-53.58934105230932L-135.6388065401985,-54.88211799550514z" style="fill:rgb(238,238,238); fill-opacity: 0.4"></path><path d="M-56.31320375657445,-11.424331576926715L-56.31320375657445,-16.497518129394408L-36.494260158205755,-9.451533836058752zM-56.31320375657445,-16.497518129394408L-57.77739112907921,-9.277230572284251L-57.77739112907921,-14.350417124751948z" style="fill:rgb(255,187,187); fill-opacity: 0.4"></path><path d="M-57.777390972217496,-14.350417107479013L-57.777390972217496,-9.277230555011318L-56.313203599712736,-16.497518112121476z" style="fill:rgb(153,221,255); fill-opacity: 0.4"></path><path d="M-57.77738994036243,-9.27723070042055L-57.77738994036243,-14.350417131934051M-57.77738994036243,-9.27723070042055L-36.494258947406024,-9.451533916950064M-57.77739097221751,-14.35041710747901L-57.77739097221751,-9.277230555011318" style="fill:none;stroke:rgb(0,0,0);stroke-width:1;stroke-linecap:round"></path><path d="M-57.77739112907921,-9.277230572284251L-56.31320375657445,-11.424331576926715L-36.494260158205755,-9.451533836058752zM-56.31320375657445,-16.497518129394408L-57.77739112907921,-14.350417124751948L-36.494260158205755,-9.451533836058752z" style="fill:rgb(255,187,187); fill-opacity: 0.4"></path><path d="M-57.77738994036243,-14.350417131934051L-36.494258947406024,-9.451533916950064" style="fill:none;stroke:rgb(0,0,0);stroke-width:1;stroke-linecap:round"></path><path d="M-57.77739112907921,-14.350417124751948L-57.77739112907921,-9.277230572284251L-36.494260158205755,-9.451533836058752z" style="fill:rgb(255,187,187); fill-opacity: 0.4"></path><path d="M-55.805793572621326,-35.72529430183152L-67.5407674199454,-18.516995275225533" style="fill:none;stroke:rgb(0,0,0);stroke-width:1;stroke-linecap:round"></path><path d="M-67.5407674199454,22.142904293475848L-55.805793572621326,4.9346052668698634L-55.80579357262132,-35.72529430183152zM-104.58208267311315,-0.4364288048714235L-116.31705652043722,16.77187022173456L-116.31705652043722,-23.88802934696682zM23.782959273814235,11.731389977485822L-35.474828651879584,5.206178571813063L-35.474828651879584,-28.2346135350335zM-67.5407674199454,22.142904293475848L-116.31705652043722,16.77187022173456L-55.805793572621326,4.9346052668698634z" style="fill:rgb(238,238,238); fill-opacity: 0.4"></path><path d="M-151.48613369130717,-31.643417344210896L-151.4861336913072,23.265160960236443M-151.4861336913072,23.265160960236443L-139.745962044374,24.557937903432254" style="fill:none;stroke:rgb(0,0,0);stroke-width:1;stroke-linecap:round"></path><path d="M-139.745962044374,-30.35064040101508L-139.745962044374,24.557937903432254L-123.89863489326531,-53.58934105230932z" style="fill:rgb(238,238,238); fill-opacity: 0.4"></path><path d="M23.782959273814242,-21.70940212936074L-35.47482865187958,-28.2346135350335M-35.47482865187958,-28.2346135350335L-45.12627454747451,-14.081623577720624M23.782959273814242,-21.70940212936074L23.782959273814242,11.731389977485819M23.782959273814242,11.731389977485819L14.131513378219305,25.884379934798698M-139.745962044374,-30.350640401015077L-139.745962044374,24.557937903432254" style="fill:none;stroke:rgb(0,0,0);stroke-width:1;stroke-linecap:round"></path><path d="M-45.126274547474516,19.359168529125938L-35.474828651879584,5.206178571813063L23.782959273814235,11.731389977485822zM-67.54076741994538,-18.516995275225533L-55.80579357262132,-35.72529430183152L-104.58208267311315,-41.0963283735728z" style="fill:rgb(238,238,238); fill-opacity: 0.4"></path><path d="M22.356036577517216,-12.993325163130386L-36.9017513481766,-19.518536568803142M-36.9017513481766,-22.562448500283757L-36.9017513481766,-19.518536568803142M-36.9017513481766,-19.518536568803142L-37.780263771679465,-18.230275966017665M-116.31705652043722,-23.88802934696682L-116.31705652043722,16.771870221734563M-116.31705652043722,16.771870221734563L-67.5407674199454,22.142904293475848M22.356036577517216,-16.037237094611L-36.9017513481766,-22.562448500283757M-36.9017513481766,-22.562448500283757L-37.780263771679465,-21.274187897498283" style="fill:none;stroke:rgb(0,0,0);stroke-width:1;stroke-linecap:round"></path><path d="M-36.90175134817661,-22.56244850028376L-36.90175134817661,-19.518536568803146L-37.780263771679465,-21.274187897498283zM-36.90175134817661,-19.518536568803146L-37.780263771679465,-18.23027596601767L-37.780263771679465,-21.274187897498283z" style="fill:rgb(153,221,255); fill-opacity: 0.4"></path><path d="M-151.48613369130717,-31.643417344210892L-139.745962044374,-30.35064040101508L-135.6388065401985,-54.88211799550514z" style="fill:rgb(238,238,238); fill-opacity: 0.4"></path><path d="M-37.780263771679465,-21.274187897498283L-37.780263771679465,-18.230275966017665M-37.780263771679465,-18.230275966017665L21.477524154014354,-11.705064560344907" style="fill:none;stroke:rgb(0,0,0);stroke-width:1;stroke-linecap:round"></path><path d="M23.782959273814242,-21.70940212936074L23.782959273814235,11.731389977485822L-35.474828651879584,-28.2346135350335zM-35.474828651879584,-28.2346135350335L-35.474828651879584,5.206178571813063L-45.126274547474516,-14.081623577720626z" style="fill:rgb(238,238,238); fill-opacity: 0.4"></path><path d="M-37.780263771679465,-21.274187897498283L21.477524154014354,-14.748976491825523" style="fill:none;stroke:rgb(0,0,0);stroke-width:1;stroke-linecap:round"></path><path d="M22.356036577517212,-12.993325163130386L-36.90175134817661,-19.518536568803146L-36.90175134817661,-22.56244850028376z" style="fill:rgb(153,221,255); fill-opacity: 0.4"></path><path d="M-151.48613369130717,23.26516096023644L-139.745962044374,24.557937903432254L-139.745962044374,-30.35064040101508z" style="fill:rgb(238,238,238); fill-opacity: 0.4"></path><path d="M-37.780263771679465,-18.23027596601767L-36.90175134817661,-19.518536568803146L22.356036577517212,-12.993325163130386zM-37.780263771679465,-21.274187897498283L21.477524154014354,-14.748976491825523L-36.90175134817661,-22.56244850028376zM-37.780263771679465,-21.274187897498283L-37.780263771679465,-18.23027596601767L21.477524154014354,-14.748976491825523z" style="fill:rgb(153,221,255); fill-opacity: 0.4"></path><path d="M-116.31705652043722,-23.88802934696682L-67.54076741994538,-18.516995275225533L-104.58208267311315,-41.0963283735728z" style="fill:rgb(238,238,238); fill-opacity: 0.4"></path><path d="M107.67626681270552,18.9485596329597L44.085532769052534,11.946222934244853M44.085532769052534,-14.078710847082954L44.085532769052534,11.946222934244853M44.085532769052534,11.946222934244853L36.57439967374823,22.960633874931098" style="fill:none;stroke:rgb(0,0,0);stroke-width:1;stroke-linecap:round"></path><path d="M-35.474828651879584,5.206178571813063L-45.126274547474516,19.359168529125938L-45.126274547474516,-14.081623577720626z" style="fill:rgb(238,238,238); fill-opacity: 0.4"></path><path d="M22.356036577517212,-16.037237094611L22.356036577517212,-12.993325163130386L-36.90175134817661,-22.56244850028376z" style="fill:rgb(153,221,255); fill-opacity: 0.4"></path><path d="M-67.54076741994538,-18.516995275225533L-67.5407674199454,22.142904293475848L-55.80579357262132,-35.72529430183152z" style="fill:rgb(238,238,238); fill-opacity: 0.4"></path><path d="M21.477524154014354,-11.705064560344907L-37.780263771679465,-18.23027596601767L22.356036577517212,-12.993325163130386zM21.477524154014354,-14.748976491825523L22.356036577517212,-16.037237094611L-36.90175134817661,-22.56244850028376z" style="fill:rgb(153,221,255); fill-opacity: 0.4"></path><path d="M-67.5407674199454,-18.516995275225533L-67.5407674199454,22.142904293475848" style="fill:none;stroke:rgb(0,0,0);stroke-width:1;stroke-linecap:round"></path><path d="M-151.48613369130717,-31.643417344210892L-151.48613369130717,23.26516096023644L-139.745962044374,-30.35064040101508z" style="fill:rgb(238,238,238); fill-opacity: 0.4"></path><path d="M23.782959273814242,-21.70940212936074L14.131513378219305,-7.556412172047866" style="fill:none;stroke:rgb(0,0,0);stroke-width:1;stroke-linecap:round"></path><path d="M-37.780263771679465,-18.23027596601767L21.477524154014354,-11.705064560344907L21.477524154014354,-14.748976491825523z" style="fill:rgb(153,221,255); fill-opacity: 0.4"></path><path d="M14.131513378219301,25.884379934798698L23.782959273814235,11.731389977485822L23.782959273814242,-21.70940212936074zM-116.31705652043722,16.77187022173456L-67.5407674199454,22.142904293475848L-67.54076741994538,-18.516995275225533z" style="fill:rgb(238,238,238); fill-opacity: 0.4"></path><path d="M22.356036577517216,-16.037237094611L22.356036577517216,-12.993325163130386M22.356036577517216,-12.993325163130386L21.477524154014354,-11.705064560344907M22.356035636134532,-16.03723744823422L22.35603563613453,-12.993325516753604M22.35603563613453,-12.993325516753604L21.47752321263167,-11.705064913968124M22.35603563613453,-12.993325516753604L42.63319976749574,-7.978677003778214" style="fill:none;stroke:rgb(0,0,0);stroke-width:1;stroke-linecap:round"></path><path d="M14.131513378219301,25.884379934798698L-45.126274547474516,19.359168529125938L23.782959273814235,11.731389977485822z" style="fill:rgb(238,238,238); fill-opacity: 0.4"></path><path d="M-45.12627454747451,-14.081623577720624L-45.12627454747451,19.359168529125938M-45.12627454747451,19.359168529125938L14.131513378219305,25.884379934798698" style="fill:none;stroke:rgb(0,0,0);stroke-width:1;stroke-linecap:round"></path><path d="M-116.31705652043722,-23.88802934696682L-116.31705652043722,16.77187022173456L-67.54076741994538,-18.516995275225533z" style="fill:rgb(238,238,238); fill-opacity: 0.4"></path><path d="M22.356036577517216,-16.037237094611L21.477524154014354,-14.748976491825523M22.356035636134532,-16.03723744823422L21.47752321263167,-14.74897684544874M22.356035636134532,-16.03723744823422L42.63319976749574,-7.978677003778214" style="fill:none;stroke:rgb(0,0,0);stroke-width:1;stroke-linecap:round"></path><path d="M22.35603649610189,-16.037237103576107L22.35603649610189,-12.99332517209549L21.477524072599035,-11.705064569310013z" style="fill:rgb(255,187,187); fill-opacity: 0.4"></path><path d="M21.477524154014354,-11.705064560344907L22.356036577517212,-12.993325163130386L22.356036577517212,-16.037237094611z" style="fill:rgb(153,221,255); fill-opacity: 0.4"></path><path d="M22.35603649610189,-16.037237103576107L21.477524072599035,-11.705064569310013L21.477524072599035,-14.74897650079063z" style="fill:rgb(255,187,187); fill-opacity: 0.4"></path><path d="M21.477524154014354,-14.748976491825523L21.477524154014354,-11.705064560344907L22.356036577517212,-16.037237094611z" style="fill:rgb(153,221,255); fill-opacity: 0.4"></path><path d="M21.477524154014354,-14.748976491825523L21.477524154014354,-11.705064560344907M21.47752321263167,-11.705064913968124L21.47752321263167,-14.74897684544874M21.47752321263167,-11.705064913968124L42.63319976749574,-7.978677003778214M-116.31705652043722,-23.88802934696682L-67.5407674199454,-18.516995275225533" style="fill:none;stroke:rgb(0,0,0);stroke-width:1;stroke-linecap:round"></path><path d="M107.67626681270552,18.9485596329597L44.085532769052534,11.946222934244853L44.085532769052534,-14.078710847082954z" style="fill:rgb(238,238,238); fill-opacity: 0.4"></path><path d="M22.35603649610189,-12.99332517209549L22.35603649610189,-16.037237103576107L42.63319848590257,-7.978677167132476zM21.477524072599035,-11.705064569310013L22.35603649610189,-12.99332517209549L42.63319848590257,-7.978677167132476z" style="fill:rgb(255,187,187); fill-opacity: 0.4"></path><path d="M14.131513378219303,-7.556412172047866L23.782959273814242,-21.70940212936074L-35.474828651879584,-28.2346135350335z" style="fill:rgb(238,238,238); fill-opacity: 0.4"></path><path d="M21.47752321263167,-14.74897684544874L42.63319976749574,-7.978677003778214M-151.48613369130717,-31.643417344210896L-139.745962044374,-30.350640401015077" style="fill:none;stroke:rgb(0,0,0);stroke-width:1;stroke-linecap:round"></path><path d="M22.35603649610189,-16.037237103576107L21.477524072599035,-14.74897650079063L42.63319848590257,-7.978677167132476zM21.477524072599035,-14.74897650079063L21.477524072599035,-11.705064569310013L42.63319848590257,-7.978677167132476z" style="fill:rgb(255,187,187); fill-opacity: 0.4"></path><path d="M107.67626681270552,-7.076374148368107L44.085532769052534,-14.078710847082954M44.085532769052534,-14.078710847082954L36.57439967374823,-3.064299906396709" style="fill:none;stroke:rgb(0,0,0);stroke-width:1;stroke-linecap:round"></path><path d="M36.57439967374823,22.960633874931098L44.085532769052534,11.946222934244853L107.67626681270552,18.9485596329597zM-45.126274547474516,-14.081623577720626L14.131513378219303,-7.556412172047866L-35.474828651879584,-28.2346135350335z" style="fill:rgb(238,238,238); fill-opacity: 0.4"></path><path d="M107.67626681270552,-7.076374148368107L107.67626681270552,18.9485596329597M107.67626681270552,18.9485596329597L100.16513371740122,29.962970573645947" style="fill:none;stroke:rgb(0,0,0);stroke-width:1;stroke-linecap:round"></path><path d="M44.085532769052534,-14.078710847082954L44.085532769052534,11.946222934244853L36.57439967374823,-3.0642999063967085zM107.67626681270552,-7.076374148368107L107.67626681270552,18.9485596329597L44.085532769052534,-14.078710847082954zM44.085532769052534,11.946222934244853L36.57439967374823,22.960633874931098L36.57439967374823,-3.0642999063967085zM14.131513378219303,-7.556412172047866L14.131513378219301,25.884379934798698L23.782959273814242,-21.70940212936074z" style="fill:rgb(238,238,238); fill-opacity: 0.4"></path><path d="M192.63973167507305,28.30436904455285L129.04899763142006,21.302032345838M129.04899763142006,-4.722901435489805L129.04899763142006,21.302032345838M129.04899763142006,21.302032345838L121.53786453611575,32.31644328652425M-45.12627454747451,-14.081623577720624L14.131513378219305,-7.556412172047866" style="fill:none;stroke:rgb(0,0,0);stroke-width:1;stroke-linecap:round"></path><path d="M-45.126274547474516,-14.081623577720626L-45.126274547474516,19.359168529125938L14.131513378219303,-7.556412172047866zM-45.126274547474516,19.359168529125938L14.131513378219301,25.884379934798698L14.131513378219303,-7.556412172047866z" style="fill:rgb(238,238,238); fill-opacity: 0.4"></path><path d="M14.131513378219305,-7.556412172047866L14.131513378219305,25.884379934798698M102.4223554803206,15.94898357377047L38.83162143666761,8.946646875055622M38.83162143666761,5.902734943575006L38.83162143666761,8.946646875055622M38.83162143666761,8.946646875055622L37.95310901316475,10.234907477841098M102.4223554803206,12.905071642289855L38.83162143666761,5.902734943575006M38.83162143666761,5.902734943575006L37.95310901316475,7.190995546360484" style="fill:none;stroke:rgb(0,0,0);stroke-width:1;stroke-linecap:round"></path><path d="M38.83162143666761,5.902734943575006L38.83162143666761,8.946646875055622L37.953109013164756,7.190995546360484zM38.83162143666761,8.946646875055622L37.953109013164756,10.234907477841098L37.953109013164756,7.190995546360484z" style="fill:rgb(153,221,255); fill-opacity: 0.4"></path><path d="M36.57439967374823,-3.064299906396709L36.57439967374823,22.960633874931098M36.57439967374823,22.960633874931098L100.16513371740122,29.962970573645947M37.95310901316475,7.190995546360484L37.95310901316475,10.234907477841098M37.95310901316475,10.234907477841098L101.54384305681774,17.237244176555947M37.95310901316475,7.190995546360484L101.54384305681774,14.19333224507533" style="fill:none;stroke:rgb(0,0,0);stroke-width:1;stroke-linecap:round"></path><path d="M100.1651337174012,29.962970573645947L36.57439967374823,22.960633874931098L107.67626681270552,18.9485596329597z" style="fill:rgb(238,238,238); fill-opacity: 0.4"></path><path d="M107.67626681270552,-7.076374148368107L100.16513371740122,3.938036792318139" style="fill:none;stroke:rgb(0,0,0);stroke-width:1;stroke-linecap:round"></path><path d="M102.42235548032059,15.94898357377047L38.83162143666761,8.946646875055622L38.83162143666761,5.902734943575006z" style="fill:rgb(153,221,255); fill-opacity: 0.4"></path><path d="M100.1651337174012,29.962970573645947L107.67626681270552,18.9485596329597L107.67626681270552,-7.076374148368107z" style="fill:rgb(238,238,238); fill-opacity: 0.4"></path><path d="M37.953109013164756,10.234907477841098L38.83162143666761,8.946646875055622L102.42235548032059,15.94898357377047z" style="fill:rgb(153,221,255); fill-opacity: 0.4"></path><path d="M100.1651337174012,3.938036792318139L107.67626681270552,-7.076374148368107L44.085532769052534,-14.078710847082954zM192.63973167507305,28.30436904455285L129.04899763142006,21.302032345838L129.04899763142006,-4.722901435489803z" style="fill:rgb(238,238,238); fill-opacity: 0.4"></path><path d="M37.953109013164756,7.190995546360484L101.54384305681774,14.19333224507533L38.83162143666761,5.902734943575006zM37.953109013164756,7.190995546360484L37.953109013164756,10.234907477841098L101.54384305681774,14.19333224507533z" style="fill:rgb(153,221,255); fill-opacity: 0.4"></path><path d="M192.63973167507305,2.279435263225043L129.04899763142006,-4.722901435489805M129.04899763142006,-4.722901435489805L121.53786453611575,6.291509505196441" style="fill:none;stroke:rgb(0,0,0);stroke-width:1;stroke-linecap:round"></path><path d="M36.57439967374823,-3.0642999063967085L100.1651337174012,3.938036792318139L44.085532769052534,-14.078710847082954z" style="fill:rgb(238,238,238); fill-opacity: 0.4"></path><path d="M102.42235548032059,12.905071642289853L102.42235548032059,15.94898357377047L38.83162143666761,5.902734943575006zM101.54384305681774,17.237244176555947L37.953109013164756,10.234907477841098L102.42235548032059,15.94898357377047z" style="fill:rgb(153,221,255); fill-opacity: 0.4"></path><path d="M121.53786453611575,32.31644328652425L129.04899763142006,21.302032345838L192.63973167507305,28.30436904455285z" style="fill:rgb(238,238,238); fill-opacity: 0.4"></path><path d="M101.54384305681774,14.19333224507533L102.42235548032059,12.905071642289853L38.83162143666761,5.902734943575006zM37.953109013164756,10.234907477841098L101.54384305681774,17.237244176555947L101.54384305681774,14.19333224507533z" style="fill:rgb(153,221,255); fill-opacity: 0.4"></path><path d="M36.57439967374823,-3.064299906396709L100.16513371740122,3.938036792318139M192.63973167507305,2.279435263225043L192.63973167507305,28.30436904455285M192.63973167507305,28.30436904455285L185.12859857976875,39.3187799852391" style="fill:none;stroke:rgb(0,0,0);stroke-width:1;stroke-linecap:round"></path><path d="M129.04899763142006,-4.722901435489803L129.04899763142006,21.302032345838L121.53786453611575,6.291509505196443zM36.57439967374823,-3.0642999063967085L36.57439967374823,22.960633874931098L100.1651337174012,3.938036792318139z" style="fill:rgb(238,238,238); fill-opacity: 0.4"></path><path d="M102.4223554803206,12.905071642289855L102.4223554803206,15.94898357377047M102.4223554803206,15.94898357377047L101.54384305681774,17.237244176555947M102.4223599511362,12.905072180722216L102.4223599511362,15.94898399124864M102.4223599511362,15.94898399124864L101.54384752763335,17.23724459403412M102.4223599511362,15.94898399124864L123.35583287426812,17.424630975317356" style="fill:none;stroke:rgb(0,0,0);stroke-width:1;stroke-linecap:round"></path><path d="M36.57439967374823,22.960633874931098L100.1651337174012,29.962970573645947L100.1651337174012,3.938036792318139z" style="fill:rgb(238,238,238); fill-opacity: 0.4"></path><path d="M102.4223554803206,12.905071642289855L101.54384305681774,14.19333224507533M102.4223599511362,12.905072180722216L101.54384752763335,14.193332783507696M102.4223599511362,12.905072180722216L123.35583287426812,17.424630975317356" style="fill:none;stroke:rgb(0,0,0);stroke-width:1;stroke-linecap:round"></path><path d="M192.63973167507305,2.279435263225044L192.63973167507305,28.30436904455285L129.04899763142006,-4.722901435489803z" style="fill:rgb(238,238,238); fill-opacity: 0.4"></path><path d="M101.54384305681774,17.237244176555947L102.42235548032059,15.94898357377047L102.42235548032059,12.905071642289853z" style="fill:rgb(153,221,255); fill-opacity: 0.4"></path><path d="M102.42235632223618,12.905071734997957L102.42235632223618,15.948983666478574L101.54384389873333,17.237244269264053z" style="fill:rgb(255,187,187); fill-opacity: 0.4"></path><path d="M100.1651337174012,3.938036792318139L100.1651337174012,29.962970573645947L107.67626681270552,-7.076374148368107z" style="fill:rgb(238,238,238); fill-opacity: 0.4"></path><path d="M100.16513371740122,3.938036792318139L100.16513371740122,29.962970573645947" style="fill:none;stroke:rgb(0,0,0);stroke-width:1;stroke-linecap:round"></path><path d="M101.54384305681774,14.19333224507533L101.54384305681774,17.237244176555947L102.42235548032059,12.905071642289853z" style="fill:rgb(153,221,255); fill-opacity: 0.4"></path><path d="M102.42235632223618,12.905071734997957L101.54384389873333,17.237244269264053L101.54384389873333,14.193332337783437z" style="fill:rgb(255,187,187); fill-opacity: 0.4"></path><path d="M101.54384305681774,14.19333224507533L101.54384305681774,17.237244176555947M101.54384752763335,17.23724459403412L101.54384752763335,14.193332783507696M101.54384752763335,17.23724459403412L123.35583287426812,17.424630975317356" style="fill:none;stroke:rgb(0,0,0);stroke-width:1;stroke-linecap:round"></path><path d="M102.42235632223618,15.948983666478574L102.42235632223618,12.905071734997957L123.3558292453681,17.424630529593095zM101.54384389873333,17.237244269264053L102.42235632223618,15.948983666478574L123.3558292453681,17.424630529593095z" style="fill:rgb(255,187,187); fill-opacity: 0.4"></path><path d="M129.04899763142006,21.302032345838L121.53786453611575,32.31644328652425L121.53786453611575,6.291509505196443z" style="fill:rgb(238,238,238); fill-opacity: 0.4"></path><path d="M101.54384752763335,14.193332783507696L123.35583287426812,17.424630975317356" style="fill:none;stroke:rgb(0,0,0);stroke-width:1;stroke-linecap:round"></path><path d="M102.42235632223618,12.905071734997957L101.54384389873333,14.193332337783437L123.3558292453681,17.424630529593095z" style="fill:rgb(255,187,187); fill-opacity: 0.4"></path><path d="M273.2702494961505,37.1830530614307L214.01246157045665,30.657841655757938M214.01246157045668,4.632907874430133L214.01246157045665,30.657841655757938M214.01246157045665,30.657841655757938L206.50132847515238,41.67225259644418" style="fill:none;stroke:rgb(0,0,0);stroke-width:1;stroke-linecap:round"></path><path d="M101.54384389873333,14.193332337783437L101.54384389873333,17.237244269264053L123.3558292453681,17.424630529593095z" style="fill:rgb(255,187,187); fill-opacity: 0.4"></path><path d="M186.79091271546417,24.57712048465552L123.20017867181117,17.574783785940674M123.20017867181117,14.530871854460058L123.20017867181117,17.574783785940674M123.20017867181117,17.574783785940674L122.32166624830832,18.863044388726152M121.53786453611575,6.291509505196441L121.53786453611575,32.31644328652425M121.53786453611575,32.31644328652425L185.12859857976875,39.3187799852391M186.79091271546417,21.53320855317491L123.20017867181117,14.530871854460058M123.20017867181117,14.530871854460058L122.32166624830832,15.819132457245537" style="fill:none;stroke:rgb(0,0,0);stroke-width:1;stroke-linecap:round"></path><path d="M123.2001786718112,14.530871854460061L123.2001786718112,17.574783785940678L122.32166624830832,15.819132457245539zM123.2001786718112,17.574783785940678L122.32166624830832,18.863044388726156L122.32166624830832,15.819132457245539z" style="fill:rgb(153,221,255); fill-opacity: 0.4"></path><path d="M185.12859857976878,39.3187799852391L121.53786453611575,32.31644328652425L192.63973167507305,28.30436904455285z" style="fill:rgb(238,238,238); fill-opacity: 0.4"></path><path d="M192.63973167507305,2.279435263225043L185.12859857976875,13.29384620391129M122.32166624830832,15.819132457245537L122.32166624830832,18.863044388726152M122.32166624830832,18.863044388726152L185.9124002919613,25.865381087441" style="fill:none;stroke:rgb(0,0,0);stroke-width:1;stroke-linecap:round"></path><path d="M185.12859857976878,39.3187799852391L192.63973167507305,28.30436904455285L192.63973167507305,2.279435263225044z" style="fill:rgb(238,238,238); fill-opacity: 0.4"></path><path d="M122.32166624830832,15.819132457245537L185.9124002919613,22.821469155960386" style="fill:none;stroke:rgb(0,0,0);stroke-width:1;stroke-linecap:round"></path><path d="M273.2702494961505,37.1830530614307L214.01246157045665,30.65784165575794L214.01246157045665,4.6329078744301375zM185.12859857976878,13.29384620391129L192.63973167507305,2.279435263225044L129.04899763142006,-4.722901435489803z" style="fill:rgb(238,238,238); fill-opacity: 0.4"></path><path d="M186.79091271546417,24.577120484655527L123.2001786718112,17.574783785940678L123.2001786718112,14.530871854460061zM122.32166624830832,18.863044388726156L123.2001786718112,17.574783785940678L186.79091271546417,24.577120484655527z" style="fill:rgb(153,221,255); fill-opacity: 0.4"></path><path d="M273.2702494961505,11.158119280102893L214.01246157045668,4.632907874430133M214.01246157045668,4.632907874430133L206.50132847515238,15.647318815116378" style="fill:none;stroke:rgb(0,0,0);stroke-width:1;stroke-linecap:round"></path><path d="M121.53786453611575,6.291509505196443L185.12859857976878,13.29384620391129L129.04899763142006,-4.722901435489803z" style="fill:rgb(238,238,238); fill-opacity: 0.4"></path><path d="M122.32166624830832,15.819132457245539L185.91240029196132,22.821469155960386L123.2001786718112,14.530871854460061zM122.32166624830832,15.819132457245539L122.32166624830832,18.863044388726156L185.91240029196132,22.821469155960386z" style="fill:rgb(153,221,255); fill-opacity: 0.4"></path><path d="M206.50132847515238,41.672252596444196L214.01246157045665,30.65784165575794L273.2702494961505,37.1830530614307z" style="fill:rgb(238,238,238); fill-opacity: 0.4"></path><path d="M273.2702494961505,11.158119280102893L273.2702494961505,37.1830530614307M273.2702494961505,37.1830530614307L265.75911640084615,48.197464002116945" style="fill:none;stroke:rgb(0,0,0);stroke-width:1;stroke-linecap:round"></path><path d="M186.79091271546417,21.53320855317491L186.79091271546417,24.577120484655527L123.2001786718112,14.530871854460061z" style="fill:rgb(153,221,255); fill-opacity: 0.4"></path><path d="M121.53786453611575,6.291509505196441L185.12859857976875,13.29384620391129" style="fill:none;stroke:rgb(0,0,0);stroke-width:1;stroke-linecap:round"></path><path d="M214.01246157045665,4.6329078744301375L214.01246157045665,30.65784165575794L206.50132847515238,15.647318815116384z" style="fill:rgb(238,238,238); fill-opacity: 0.4"></path><path d="M185.91240029196132,25.865381087441L122.32166624830832,18.863044388726156L186.79091271546417,24.577120484655527zM185.91240029196132,22.821469155960386L186.79091271546417,21.53320855317491L123.2001786718112,14.530871854460061z" style="fill:rgb(153,221,255); fill-opacity: 0.4"></path><path d="M121.53786453611575,6.291509505196443L121.53786453611575,32.31644328652425L185.12859857976878,13.29384620391129zM273.2702494961505,11.158119280102893L273.2702494961505,37.1830530614307L214.01246157045665,4.6329078744301375z" style="fill:rgb(238,238,238); fill-opacity: 0.4"></path><path d="M122.32166624830832,18.863044388726156L185.91240029196132,25.865381087441L185.91240029196132,22.821469155960386z" style="fill:rgb(153,221,255); fill-opacity: 0.4"></path><path d="M121.53786453611575,32.31644328652425L185.12859857976878,39.3187799852391L185.12859857976878,13.29384620391129zM185.12859857976878,13.29384620391129L185.12859857976878,39.3187799852391L192.63973167507305,2.279435263225044z" style="fill:rgb(238,238,238); fill-opacity: 0.4"></path><path d="M303.013144569532,70.44760035010782L295.6059210788203,69.6319489243987M295.6059210788203,-7.730283207628021L295.6059210788203,69.6319489243987M295.6059210788203,69.6319489243987L293.5761263751165,72.60846294806838M186.79091271546417,21.53320855317491L186.79091271546417,24.57712048465552M186.79091271546417,24.57712048465552L185.9124002919613,25.865381087441M186.79091546229165,21.53320891720189L186.79091546229165,24.577120848682508M186.79091546229165,24.577120848682508L185.9124030387888,25.865381451467982M186.79091546229165,24.577120848682508L207.72438838542357,26.052767711797028M185.12859857976875,13.29384620391129L185.12859857976875,39.3187799852391" style="fill:none;stroke:rgb(0,0,0);stroke-width:1;stroke-linecap:round"></path><path d="M214.01246157045665,30.65784165575794L206.50132847515238,41.672252596444196L206.50132847515238,15.647318815116384z" style="fill:rgb(238,238,238); fill-opacity: 0.4"></path><path d="M303.013144569532,-6.914631781918931L303.013144569532,70.44760035010782M303.013144569532,70.44760035010782L300.9833498658282,73.42411437377747M186.79091271546417,21.53320855317491L185.9124002919613,22.821469155960386M186.79091546229165,21.53320891720189L185.9124030387888,22.821469519987367M186.79091546229165,21.53320891720189L207.72438838542357,26.052767711797028" style="fill:none;stroke:rgb(0,0,0);stroke-width:1;stroke-linecap:round"></path><path d="M185.91240029196132,25.865381087441L186.79091271546417,24.577120484655527L186.79091271546417,21.53320855317491z" style="fill:rgb(153,221,255); fill-opacity: 0.4"></path><path d="M186.79091355737978,21.53320864588301L186.79091355737978,24.577120577363626L185.91240113387693,25.865381180149104z" style="fill:rgb(255,187,187); fill-opacity: 0.4"></path><path d="M293.5761263751165,72.60846294806838L295.6059210788203,69.63194892439871L303.013144569532,70.44760035010782z" style="fill:rgb(238,238,238); fill-opacity: 0.4"></path><path d="M185.91240029196132,22.821469155960386L185.91240029196132,25.865381087441L186.79091271546417,21.53320855317491z" style="fill:rgb(153,221,255); fill-opacity: 0.4"></path><path d="M186.79091355737978,21.53320864588301L185.91240113387693,25.865381180149104L185.91240113387693,22.82146924866849z" style="fill:rgb(255,187,187); fill-opacity: 0.4"></path><path d="M185.9124002919613,22.821469155960386L185.9124002919613,25.865381087441M185.9124030387888,25.865381451467982L185.9124030387888,22.821469519987367M185.9124030387888,25.865381451467982L207.72438838542357,26.052767711797028" style="fill:none;stroke:rgb(0,0,0);stroke-width:1;stroke-linecap:round"></path><path d="M186.79091355737978,24.577120577363626L186.79091355737978,21.53320864588301L207.7243864805117,26.052767440478153zM185.91240113387693,25.865381180149104L186.79091355737978,24.577120577363626L207.7243864805117,26.052767440478153z" style="fill:rgb(255,187,187); fill-opacity: 0.4"></path><path d="M185.9124030387888,22.821469519987367L207.72438838542357,26.052767711797028" style="fill:none;stroke:rgb(0,0,0);stroke-width:1;stroke-linecap:round"></path><path d="M186.79091355737978,21.53320864588301L185.91240113387693,22.82146924866849L207.7243864805117,26.052767440478153zM185.91240113387693,22.82146924866849L185.91240113387693,25.865381180149104L207.7243864805117,26.052767440478153z" style="fill:rgb(255,187,187); fill-opacity: 0.4"></path><path d="M300.9833498658282,73.42411437377748L293.5761263751165,72.60846294806838L303.013144569532,70.44760035010782z" style="fill:rgb(238,238,238); fill-opacity: 0.4"></path><path d="M206.50132847515238,15.647318815116378L206.50132847515238,41.67225259644418M206.50132847515238,41.67225259644418L265.75911640084615,48.197464002116945M293.5761263751165,-4.753769183958359L293.5761263751165,72.60846294806838M293.5761263751165,72.60846294806838L300.9833498658282,73.42411437377747M331.7930971747733,73.61672430103773L324.3858736840616,72.80107287532863M324.3858736840616,-4.5611592566981045L324.3858736840616,72.80107287532863M324.3858736840616,72.80107287532863L322.3560789803578,75.7775868989983M273.2702494961505,11.158119280102893L265.7591164008462,22.172530220789138" style="fill:none;stroke:rgb(0,0,0);stroke-width:1;stroke-linecap:round"></path><path d="M265.7591164008462,48.19746400211695L206.50132847515238,41.672252596444196L273.2702494961505,37.1830530614307zM265.7591164008462,48.19746400211695L273.2702494961505,37.1830530614307L273.2702494961505,11.158119280102893z" style="fill:rgb(238,238,238); fill-opacity: 0.4"></path><path d="M300.9833498658282,-3.938117758249261L300.9833498658282,73.42411437377747M331.7930971747733,-3.7455078309890153L331.7930971747733,73.61672430103773M331.7930971747733,73.61672430103773L329.76330247106944,76.59323832470739" style="fill:none;stroke:rgb(0,0,0);stroke-width:1;stroke-linecap:round"></path><path d="M322.3560789803578,75.7775868989983L324.38587368406155,72.80107287532863L331.79309717477327,73.61672430103773zM265.7591164008462,22.172530220789138L273.2702494961505,11.158119280102893L214.01246157045665,4.6329078744301375zM303.013144569532,70.44760035010782L295.6059210788203,69.63194892439871L295.6059210788203,-7.730283207628024zM329.76330247106944,76.59323832470739L322.3560789803578,75.7775868989983L331.79309717477327,73.61672430103773z" style="fill:rgb(238,238,238); fill-opacity: 0.4"></path><path d="M322.3560789803578,-1.5846452330284433L322.3560789803578,75.7775868989983M322.3560789803578,75.7775868989983L329.76330247106944,76.59323832470739" style="fill:none;stroke:rgb(0,0,0);stroke-width:1;stroke-linecap:round"></path><path d="M206.50132847515238,15.647318815116384L265.7591164008462,22.172530220789138L214.01246157045665,4.6329078744301375z" style="fill:rgb(238,238,238); fill-opacity: 0.4"></path><path d="M274.2869310590061,30.203290970251828L286.39814423544004,31.536925402480346" style="fill:none;stroke:rgb(0,0,0);stroke-width:1;stroke-linecap:round"></path><path d="M300.9833498658282,73.42411437377748L303.013144569532,70.44760035010782L303.013144569532,-6.914631781918926zM295.6059210788203,69.63194892439871L293.5761263751165,72.60846294806838L293.5761263751165,-4.753769183958359z" style="fill:rgb(238,238,238); fill-opacity: 0.4"></path><path d="M329.76330247106944,-0.7689938073193451L329.76330247106944,76.59323832470739M360.57304978001457,73.14906337785946L353.16582628930286,72.33341195215036M353.16582628930286,2.2447495683399765L353.16582628930286,72.33341195215036M353.16582628930286,72.33341195215036L351.136031585599,75.30992597582004M206.50132847515238,15.647318815116378L265.7591164008462,22.172530220789138M360.57304978001457,3.0604009940490746L360.57304978001457,73.14906337785946M360.57304978001457,73.14906337785946L358.5432550763107,76.12557740152913" style="fill:none;stroke:rgb(0,0,0);stroke-width:1;stroke-linecap:round"></path><path d="M206.50132847515238,15.647318815116384L206.50132847515238,41.672252596444196L265.7591164008462,22.172530220789138zM351.136031585599,75.30992597582004L353.1658262893028,72.33341195215037L360.5730497800145,73.14906337785946zM331.79309717477327,73.61672430103773L324.38587368406155,72.80107287532863L324.38587368406155,-4.561159256698109z" style="fill:rgb(238,238,238); fill-opacity: 0.4"></path><path d="M285.7018817472279,33.341783079739336L286.39814423544,34.07351867871419L293.5223872804011,32.32141624496771z" style="fill:rgb(0,0,0)"></path><path d="M293.5761263751165,72.60846294806838L300.9833498658282,73.42411437377748L300.9833498658282,-3.9381177582492604z" style="fill:rgb(238,238,238); fill-opacity: 0.4"></path><path d="M286.82845810143596,28.853761169430214L285.967830369444,30.11579545731095L293.5223872804011,32.32141624496771z" style="fill:rgb(0,0,0)"></path><path d="M206.50132847515238,41.672252596444196L265.7591164008462,48.19746400211695L265.7591164008462,22.172530220789138zM265.7591164008462,22.172530220789138L265.7591164008462,48.19746400211695L273.2702494961505,11.158119280102893z" style="fill:rgb(238,238,238); fill-opacity: 0.4"></path><path d="M285.967830369444,30.11579545731095L285.7018817472279,33.341783079739336L293.5223872804011,32.32141624496771z" style="fill:rgb(0,0,0)"></path><path d="M265.7591164008462,22.172530220789138L265.75911640084615,48.197464002116945" style="fill:none;stroke:rgb(0,0,0);stroke-width:1;stroke-linecap:round"></path><path d="M358.5432550763107,76.12557740152913L351.136031585599,75.30992597582004L360.5730497800145,73.14906337785946z" style="fill:rgb(238,238,238); fill-opacity: 0.4"></path><path d="M303.06688366424737,33.372414921181736L315.1780968406813,34.70604935341026" style="fill:none;stroke:rgb(0,0,0);stroke-width:1;stroke-linecap:round"></path><path d="M329.76330247106944,76.59323832470739L331.79309717477327,73.61672430103773L331.79309717477327,-3.745507830989015z" style="fill:rgb(238,238,238); fill-opacity: 0.4"></path><path d="M351.136031585599,5.221263592009643L351.136031585599,75.30992597582004M351.136031585599,75.30992597582004L358.5432550763107,76.12557740152913" style="fill:none;stroke:rgb(0,0,0);stroke-width:1;stroke-linecap:round"></path><path d="M324.38587368406155,72.80107287532863L322.3560789803578,75.7775868989983L322.3560789803578,-1.5846452330284426zM303.013144569532,-6.914631781918926L303.013144569532,70.44760035010782L295.6059210788203,-7.730283207628024z" style="fill:rgb(238,238,238); fill-opacity: 0.4"></path><path d="M358.5432550763107,6.036915017718741L358.5432550763107,76.12557740152913" style="fill:none;stroke:rgb(0,0,0);stroke-width:1;stroke-linecap:round"></path><path d="M295.6059210788203,-7.730283207628024L295.6059210788203,69.63194892439871L293.5761263751165,-4.753769183958359z" style="fill:rgb(238,238,238); fill-opacity: 0.4"></path><path d="M314.48183435246915,36.51090703066925L315.17809684068123,37.2426426296441L322.30233988564237,35.490540195897616z" style="fill:rgb(0,0,0)"></path><path d="M322.3560789803578,75.7775868989983L329.76330247106944,76.59323832470739L329.76330247106944,-0.7689938073193486z" style="fill:rgb(238,238,238); fill-opacity: 0.4"></path><path d="M315.6084107066772,32.02288512036013L314.74778297468526,33.28491940824086L322.30233988564237,35.490540195897616z" style="fill:rgb(0,0,0)"></path><path d="M360.5730497800145,73.14906337785946L353.1658262893028,72.33341195215037L353.1658262893028,2.2447495683399774z" style="fill:rgb(238,238,238); fill-opacity: 0.4"></path><path d="M314.74778297468526,33.28491940824086L314.48183435246915,36.51090703066925L322.30233988564237,35.490540195897616z" style="fill:rgb(0,0,0)"></path><path d="M300.9833498658282,-3.9381177582492604L300.9833498658282,73.42411437377748L303.013144569532,-6.914631781918926z" style="fill:rgb(238,238,238); fill-opacity: 0.4"></path><path d="M331.8468362694886,36.54153887211165L343.95804944592254,37.87517330434017" style="fill:none;stroke:rgb(0,0,0);stroke-width:1;stroke-linecap:round"></path><path d="M293.5761263751165,-4.753769183958359L293.5761263751165,72.60846294806838L300.9833498658282,-3.9381177582492604zM358.5432550763107,76.12557740152913L360.5730497800145,73.14906337785946L360.5730497800145,3.0604009940490706zM353.1658262893028,72.33341195215037L351.136031585599,75.30992597582004L351.136031585599,5.2212635920096435zM331.79309717477327,-3.745507830989015L331.79309717477327,73.61672430103773L324.38587368406155,-4.561159256698109zM324.38587368406155,-4.561159256698109L324.38587368406155,72.80107287532863L322.3560789803578,-1.5846452330284426z" style="fill:rgb(238,238,238); fill-opacity: 0.4"></path><path d="M343.26178695771034,39.68003098159916L343.9580494459225,40.41176658057402L351.0822924908836,38.65966414682753z" style="fill:rgb(0,0,0)"></path><path d="M303.013144569532,-6.914631781918931L295.6059210788203,-7.730283207628021M295.6059210788203,-7.730283207628021L293.5761263751165,-4.753769183958359" style="fill:none;stroke:rgb(0,0,0);stroke-width:1;stroke-linecap:round"></path><path d="M344.38836331191845,35.192009071290045L343.52773557992646,36.454043359170775L351.0822924908836,38.65966414682753z" style="fill:rgb(0,0,0)"></path><path d="M351.136031585599,75.30992597582004L358.5432550763107,76.12557740152913L358.5432550763107,6.036915017718737z" style="fill:rgb(238,238,238); fill-opacity: 0.4"></path><path d="M343.52773557992646,36.454043359170775L343.26178695771034,39.68003098159916L351.0822924908836,38.65966414682753z" style="fill:rgb(0,0,0)"></path><path d="M303.013144569532,-6.914631781918931L300.9833498658282,-3.938117758249261" style="fill:none;stroke:rgb(0,0,0);stroke-width:1;stroke-linecap:round"></path><path d="M329.76330247106944,-0.7689938073193486L329.76330247106944,76.59323832470739L331.79309717477327,-3.745507830989015zM322.3560789803578,-1.5846452330284426L322.3560789803578,75.7775868989983L329.76330247106944,-0.7689938073193486zM300.9833498658282,-3.9381177582492604L303.013144569532,-6.914631781918926L295.6059210788203,-7.730283207628024zM360.5730497800145,3.0604009940490706L360.5730497800145,73.14906337785946L353.1658262893028,2.2447495683399774zM353.1658262893028,2.2447495683399774L353.1658262893028,72.33341195215037L351.136031585599,5.2212635920096435zM293.5761263751165,-4.753769183958359L300.9833498658282,-3.9381177582492604L295.6059210788203,-7.730283207628024z" style="fill:rgb(238,238,238); fill-opacity: 0.4"></path><path d="M293.5761263751165,-4.753769183958359L300.9833498658282,-3.938117758249261M331.7930971747733,-3.7455078309890153L324.3858736840616,-4.5611592566981045M324.3858736840616,-4.5611592566981045L322.3560789803578,-1.5846452330284433" style="fill:none;stroke:rgb(0,0,0);stroke-width:1;stroke-linecap:round"></path><path d="M358.5432550763107,6.036915017718737L358.5432550763107,76.12557740152913L360.5730497800145,3.0604009940490706z" style="fill:rgb(238,238,238); fill-opacity: 0.4"></path><path d="M331.7930971747733,-3.7455078309890153L329.76330247106944,-0.7689938073193451" style="fill:none;stroke:rgb(0,0,0);stroke-width:1;stroke-linecap:round"></path><path d="M351.136031585599,5.2212635920096435L351.136031585599,75.30992597582004L358.5432550763107,6.036915017718737zM329.76330247106944,-0.7689938073193486L331.79309717477327,-3.745507830989015L324.38587368406155,-4.561159256698109zM322.3560789803578,-1.5846452330284426L329.76330247106944,-0.7689938073193486L324.38587368406155,-4.561159256698109z" style="fill:rgb(238,238,238); fill-opacity: 0.4"></path><path d="M360.57304978001457,3.0604009940490746L353.16582628930286,2.2447495683399765M353.16582628930286,2.2447495683399765L351.136031585599,5.221263592009643M322.3560789803578,-1.5846452330284433L329.76330247106944,-0.7689938073193451M360.57304978001457,3.0604009940490746L358.5432550763107,6.036915017718741" style="fill:none;stroke:rgb(0,0,0);stroke-width:1;stroke-linecap:round"></path><path d="M358.5432550763107,6.036915017718737L360.5730497800145,3.0604009940490706L353.1658262893028,2.2447495683399774zM351.136031585599,5.2212635920096435L358.5432550763107,6.036915017718737L353.1658262893028,2.2447495683399774z" style="fill:rgb(238,238,238); fill-opacity: 0.4"></path><path d="M351.136031585599,5.221263592009643L358.5432550763107,6.036915017718741" style="fill:none;stroke:rgb(0,0,0);stroke-width:1;stroke-linecap:round"></path></svg>