<svg id="Layer_1" enable-background="new 0 0 512.002 512.002" height="512" viewBox="0 0 512.002 512.002" width="512" xmlns="http://www.w3.org/2000/svg"><path d="m211.611 95.561c-13.978-4.042-28.048-12.651-38.825-24.875-.452-.403-2.471-3.514-6.987-4.834-11.134-3.255-12.117 6.186-35.405 17.05-9.427 4.398-16.097 6.003-20.247 7.341-12.84 4.14-11.905 22.709-.289 21.247 3.563-.449 6.283-3.179 6.878-6.538 2.502-.994 21.866-4.738 44.978-22.646 11.638 12.836 26.378 22.401 42.85 27.81-.992 6.431-6.508 18.83-2.617 48.893-17.31 2.85-33.012 10.837-45.502 23.139-12.192-11.824-26.413-20.912-42.308-27.033-.783-9.062-13.761-9.937-15.773-1.081-1.449 6.379 2.063 12.957 8.169 15.3 1.438.724 21.479 6.751 40.498 26.01 4.234 4.287 9.526 3.96 9.426 3.939 6.741 0 10.009-4.713 10.683-5.205 17.848-17.958 38.859-19.342 39.954-19.686 7.13-1.13 11.991-7.623 11.064-14.782l-.905-6.999c-2.794-21.601 2.664-36.401 3.475-41.397 1.552-6.771-2.441-13.644-9.117-15.653z"/><path d="m145.396 154.342c19.465 12.619 44.54-4.76 39.72-27.349-3.009-14.105-16.859-23.093-30.971-20.08-22.597 4.824-28.203 34.814-8.749 47.429zm12.089-31.781c5.444-1.164 10.816 2.3 11.983 7.771 1.869 8.764-7.853 15.461-15.368 10.586-7.469-4.844-5.459-16.47 3.385-18.357z"/><path d="m484.049 453.211c-2.893-3.342-7.946-3.703-11.285-.812-10.869 9.411-23.676 10.037-36.741 4.029 3.443-6.709 3.407-15.003-.863-21.854-23.736-38.098-23.094-37.937-27.214-41.208 3.185-6.548 2.335-6.948.675-52.352-.265-7.251-4.001-13.577-9.553-17.422 3.141-7.08 2.496-15.607-2.45-22.249l-25.033-33.614c-5.123-6.88-13.397-9.888-21.237-8.657-1.657-4.747-4.898-8.999-9.569-11.727-34.738-20.284-36.833-23.834-45.704-24.482-1.287-10.432-6.287-12.4-31.904-45.695-3.833-4.981-9.673-8.096-16.42-8.406-.171-2.54-3.442-19.119-.959-41.463 1.968-17.711 6.206-28.474 6.365-33.822l20.323-7.006c2.661 4.024 6.435 7.747 11.32 11.135 3.615 2.507 8.603 1.631 11.133-2.016 2.518-3.631 1.615-8.615-2.016-11.133-5.473-3.795-8.517-7.77-9.048-11.815-.688-5.241 2.968-9.735 3.142-9.944 2.88-3.304 2.566-8.317-.717-11.235-3.303-2.936-8.359-2.637-11.294.665-.795.895-7.151 8.415-7.198 19.032l-23.255 8.017c-4.916-3.118-21.724-6.172-41.735-19.627-18.007-12.107-26.3-24.154-29.966-26.881.536-3.074.694-6.767.075-10.665 2.133-1.785 5.893-4.178 11.513-5.144 4.354-.748 7.278-4.885 6.53-9.239s-4.882-7.278-9.239-6.53c-6.671 1.146-11.819 3.571-15.635 6.091-1.755-2.043-3.887-3.991-6.475-5.771-3.64-2.504-8.621-1.582-11.125 2.057-2.504 3.641-1.583 8.621 2.057 11.125 5.815 4.001 7.883 9.973 6.391 16.05-5.268 2.135-13.029 11.199-34.483 22.504-20.377 10.738-36.332 14.107-40.18 15.612-1.548-4.891-2.511-10.823-.437-14.249 2.289-3.779 1.08-8.698-2.7-10.986-3.779-2.291-8.699-1.08-10.987 2.699-3.987 6.584-4.006 14.347-2.767 20.996-4.25-.107-9.04.61-14.039 2.836-4.037 1.796-5.853 6.524-4.056 10.562 1.797 4.037 6.525 5.854 10.562 4.056 5.049-2.246 9.732-1.49 12.612-.564-.096 4.637 3.839 21.135 1.874 47.091-1.591 21.012-6.165 34.605-6.296 38.652l-16.477 7.606c-7.045-5.175-15.347-4.505-16.389-4.397-4.395.456-7.587 4.389-7.131 8.783.456 4.395 4.387 7.598 8.783 7.131.038.001 3.934-.172 5.959 1.996 1.918 2.054 2.412 6.43 1.39 12.321-.755 4.354 2.162 8.495 6.516 9.25 4.353.754 8.494-2.163 9.249-6.516.969-5.587 1.002-10.55.113-14.865l15.359-7.09c4.04 2.667 17.264 5.781 36.669 17.878 21.47 13.384 31.355 26.45 36.516 29.16.41 1.402 3.723 14.276-7.658 29.447-2.651 3.534-1.936 8.549 1.599 11.2 3.556 2.668 8.566 1.912 11.2-1.599 2.282-3.042 4.126-6.042 5.629-8.964 4.498 2.463 9.6 3.257 14.723 3.048 4.415-.182 7.846-3.907 7.665-8.322-.182-4.414-3.907-7.862-8.322-7.664-5.891.24-7.956-1.916-8.679-3.48.902-5.962.554-10.917.027-14.264 5.451-3.393 22.219-26.308 59.988-34.988 1.6 9.464 6.088 11.443 31.785 44.714 3.953 5.117 9.971 8.207 16.706 8.429.951 6.354 4.596 12.314 10.572 15.785 35.335 20.52 38.617 26.161 50.694 24.288 1.949 5.464 2.911 5.275 28.124 39.393 1.411 1.909 3.108 3.525 4.991 4.858-2.693 6.148-1.967 6.043-.302 51.556.249 6.805 3.563 12.78 8.557 16.668-3.264 6.646-3.156 14.771 1.039 21.504l22.163 35.572c4.024 6.458 10.929 10.305 18.46 10.438-1.207 8.313-5.82 20.51-21.625 28.054-3.987 1.903-5.677 6.679-3.773 10.666 1.906 3.993 6.681 5.674 10.666 3.773 16.144-7.706 23.878-19.131 27.574-28.706 12.224 15.366 25.511 20.208 26.265 20.473 4.162 1.458 8.731-.727 10.195-4.904 1.461-4.17-.735-8.734-4.904-10.195-3.666-1.294-10.589-5.78-16.562-12.417 12.307 2.188 26.71.398 39.844-10.975 3.339-2.894 3.702-7.946.81-11.286zm-97.272-63.364c-2.972-.33-5.336-2.812-5.449-5.889l-1.532-41.889c-.298-8.158 12.534-8.667 12.835-.47l1.532 41.888c.078 2.148-.961 4.081-2.594 5.243-1.63.194-3.236.56-4.792 1.117zm-232.6-172.877c-1.198-.399-13.193-14.721-36.716-29.169-21.565-13.245-35.637-16.542-35.429-17.458.496-3.339 5.992-21.132 6.739-47.588.578-20.452-1.942-34.76-2.322-38.245-.143-1.312 18.365-3.873 44.12-17.562 21.801-11.588 32.119-22.162 32.78-21.405 1.685 1.456 26.492 33.236 72.429 47.065.431.128.404.336.379.448-1.912 8.792-5.487 20.478-6.881 38.423-1.795 23.097 1.806 38.557 2.027 42.584-.341.305-2.084 1.399-4.306 4.318-48.174 8.036-71.547 38.589-72.82 38.589zm112.947 13.364c-40.276-51.637-28.539-31.021-21.158-45.602 4.864.163 3.252 1.084 31.992 37.069 1.578 1.976 1.706 4.645.575 6.74-1.699 1.546-3.248 4.588-7.297 4.098-1.634-.194-3.1-1.007-4.112-2.305zm58.901 41.8-36.009-21.434c-7.078-4.215-.417-15.198 6.571-11.041l36.009 21.435c7.032 4.188.484 15.24-6.571 11.04zm22.425 12.825c-4.587-7.131 5.584-14.01 10.302-7.673l25.033 33.614c1.964 2.637 1.749 6.762-2.074 9.194-1.169.227-4.534 3.292-8.228-1.522zm40.066 129.296c-1.752-2.768-1.047-6.6 2.06-8.539 1.614-.187 3.174-.543 4.659-1.057 1.856.328 3.287 1.365 4.182 2.803l22.164 35.573c3.11 4.993-1.969 10.716-7.068 9.534-4.357-1.011-3.039-2.041-25.997-38.314z"/><path d="m110.1 139.197c4.418 0 7.988-3.582 7.988-8s-3.594-8-8.013-8-8 3.582-8 8c0 4.342 3.497 8 8.025 8z"/></svg>